/* XPM */
static char *result[] = {
/* columns rows colors chars-per-pixel */
"64 64 194 2 ",
"   c #653705",
".  c #653706",
"X  c #673904",
"o  c #6A3A05",
"O  c #663A0E",
"+  c #6C3D0A",
"@  c #703D05",
"#  c #713E0A",
"$  c #6F400D",
"%  c #724007",
"&  c #74420C",
"*  c #79450E",
"=  c #7C490C",
"-  c #6D4112",
";  c #754411",
":  c #794612",
">  c #754A15",
",  c #7D4A14",
"<  c #704419",
"1  c #7D4D1A",
"2  c #774E25",
"3  c #7A4E22",
"4  c #7C5225",
"5  c #6F744A",
"6  c #75744A",
"7  c #78754A",
"8  c #777650",
"9  c #7A7E56",
"0  c #81460C",
"q  c #824D15",
"w  c #824E19",
"e  c #845116",
"r  c #8C5214",
"t  c #84521B",
"y  c #8A551E",
"u  c #8C591F",
"i  c #915512",
"p  c #935C1F",
"a  c #855421",
"s  c #8A5621",
"d  c #8D5A23",
"f  c #86572B",
"g  c #8C5D29",
"h  c #905721",
"j  c #935D23",
"k  c #925E28",
"l  c #966026",
"z  c #94612A",
"x  c #9B642A",
"c  c #876337",
"v  c #896337",
"b  c #8B663C",
"n  c #956532",
"m  c #9B6934",
"M  c #956839",
"N  c #9B6A3D",
"B  c #9B713F",
"V  c #A26A2D",
"C  c #A86C2F",
"Z  c #A56C34",
"A  c #8F6740",
"S  c #886C42",
"D  c #8C6E4B",
"F  c #946742",
"G  c #9A6744",
"H  c #966B44",
"J  c #9A6A44",
"K  c #966D4A",
"L  c #9A6D4A",
"P  c #867149",
"I  c #947045",
"U  c #9C7244",
"Y  c #96724C",
"T  c #9B724D",
"R  c #9C784C",
"E  c #877C56",
"W  c #967352",
"Q  c #9C7552",
"!  c #9E7B54",
"~  c #9C7759",
"^  c #9E7B5C",
"/  c #A27643",
"(  c #A0744F",
")  c #A77C48",
"_  c #A67C4B",
"`  c #A17656",
"'  c #A27A54",
"]  c #A37E5B",
"[  c #A87F5A",
"{  c #A67F63",
"}  c #3F824F",
"|  c #75855C",
" . c #758964",
".. c #78926F",
"X. c #91805F",
"o. c #AC8455",
"O. c #A4815B",
"+. c #A9835D",
"@. c #B88956",
"#. c #B68758",
"$. c #B48B5C",
"%. c #8E8866",
"&. c #998465",
"*. c #A58263",
"=. c #AA8562",
"-. c #AD8B65",
";. c #A4856B",
":. c #A7896D",
">. c #AB8A6B",
",. c #B18A66",
"<. c #B38C6B",
"1. c #B4926D",
"2. c #BD9668",
"3. c #AC8C72",
"4. c #AF8F7A",
"5. c #AE9170",
"6. c #B59472",
"7. c #BA9575",
"8. c #BC9A74",
"9. c #B59878",
"0. c #BD9C7B",
"q. c #BEA17C",
"w. c #C38F5D",
"e. c #C3915E",
"r. c #C8905D",
"t. c #C68F60",
"y. c #C39262",
"u. c #C2966A",
"i. c #C59969",
"p. c #C69B6D",
"a. c #C59C71",
"s. c #CB9E71",
"d. c #C19E7E",
"f. c #CAA476",
"g. c #C3A37C",
"h. c #CBA57B",
"j. c #CDA97E",
"k. c #D2A67F",
"l. c #B79B82",
"z. c #B99F88",
"x. c #A5AA85",
"c. c #BFA281",
"v. c #C4A585",
"b. c #CAA781",
"n. c #C4A986",
"m. c #CAAB84",
"M. c #C7AB89",
"N. c #CCAD8C",
"B. c #D2AD82",
"V. c #CAB08D",
"C. c #D8B386",
"Z. c #D4B38C",
"A. c #D8B38A",
"S. c #CEB393",
"D. c #D3B594",
"F. c #D5B994",
"G. c #DABA94",
"H. c #D6B79D",
"J. c #D6BC9A",
"K. c #DABF9D",
"L. c #DABEA1",
"P. c #D7C09F",
"I. c #DCC19C",
"U. c #E0C29E",
"Y. c #DCC3A2",
"T. c #DFC9AA",
"R. c #E1C6A4",
"E. c #E3C9A6",
"W. c #E9CCA5",
"Q. c #E1C7A8",
"!. c #E4CBAB",
"~. c #EACCAA",
"^. c #ECD2AE",
"/. c #E8CEB3",
"(. c #E6D1B1",
"). c #EBD4B4",
"_. c #EED8B6",
"`. c #EDD7BA",
"'. c #EEDABA",
"]. c #F2D9B7",
"[. c #F4D9B7",
"{. c #F2DCBC",
"}. c #F4E1BF",
"|. c #F8E0BF",
" X c #F4DEC3",
".X c #F6E2C4",
"XX c #F9E4C5",
"oX c #F9E9C7",
"OX c #F7E6C9",
"+X c #FCE6CB",
"@X c #F7EACC",
"#X c #FAE9CB",
"$X c #F7E9D0",
"%X c #FCEBD1",
/* pixels */
"} } } } } } } } } } } } } } } } } } } } } } } } } } } } } } } } } } } } } } } } } } } } } } } } } } } } } } } } } } } } } } } } ",
"} } } } } } } } } } } } } } } } } } } } } } } } &.Q W L G K G L L L K K W *.3.} } } } } } } } } } } } } } } } } } } } } } } } } ",
"} } } } } } } } } } } } } } } } } } } } 4.~ J G G J J K L ( ( ( T L H G J F F F H } } } } } } } } } } } } } } } } } } } } } } } ",
"} } } } } } } } } } } } } } } } } } :.J H H H T +.7.0.N.H.R.U.Y.L.H.M.0.8.O.Q I H F J K 9 } } } } } } } } } } } } } } } } } } } ",
"} } } } } } } } } } } } } } } } :.7 S H Q >.v.R.'.OX+X%X%X#X%X%X%X%X%X#XoX'.!.S.0.=.L J J H E } } } } } } } } } } } } } } } } } ",
"} } } } } } } } } } } } } } } 5 6 D ` 0./. X+X%X%X%X%X%X%X%X%X%X#X#X#X#X#X%X%X%X#X}.Y.q.O.U F H Q } } } } } } } } } } } } } } } ",
"} } } } } } } } } } } } } } 6 7 Y 6.!.OX$X%X%X%X#X%X%X%X%X%X%X#X%X%X%X%X%X%X%X%X%X%X%X@X_.S.=.R I I } } } } } } } } } } } } } } ",
"} } } } } } } } } } } } } L P ] F.XX#X#X%X%X%X%X%X%X#X#X.X{.~.j.8.A.G.^.R.F.{.%X#X%X%X%X%X@X.XD.O.H J ] } } } } } } } } } } } } ",
"} } } } } } } } } } } } K L 6.~.#X#X#X#X%X%X#X{.].U.a.g.Z.Z._ j j g n / n z o.E.XX#X#X#X%X#X%X#X).7.Y J W } } } } } } } } } } } ",
"} } } } } } } } } } } J L g.}.%X%X#X#X#X|.U.j.Z.B.B g j ) w.k j l y q t p j d o.I.).+X#X#X#X#X%X#X XD.! J Q } } } } } } } } } } ",
"} } } } } } } } } } H L v.XX#X$X#X#XoXW.j.B z / o.e p p j d h j j q 1 1 g j j n i.b.R._.#X#X%X#X@X%X+XY.[ J ~ } } } } } } } } } ",
"} } } } } } } }  .H J M.+X%X%X%XoX_.Y.C./ u j z 1 1 j j j : s k t & a : t g j d z x @.o.m.XX#X@X}.)..X%XT.] G ` } } } } } } } } ",
"} } } } } } } } J L 0.OX%X%X%X{.q.o.@.j.v u j l e $ y j d & : , $ + y & & w y j j p r r j a.].W.o.N 2.].$XL.` K &.} } } } } } } ",
"} } } } } } } K L l..X%X%X+X].7.g d g B 1 e j g y % & 1 w ; + o X , y : o o q j j d , r e s h.' g j g 8.+X+XH.Q H W } } } } } } ",
"} } } } } } E G 0. X$X#X#X).F.H y p p y : % t s y > % X + # w : * , = , t * w j j a + * = e #.f d p j U  X%X+XK.` N 6.} } } } } ",
"} } } } } } L [ ].#X#X#X_.G.A.M , l d y e + % & d l t : : : x V l t t z j d q j d & + : u j m : t j j m ).%X%X#XN.G =.} } } } } ",
"} } } } } } F 6.oX#X#X}.G.j.2.4 % t s , j a & & s j j j k k C C V y y j j j u j j : : j j j t : & t d d V.+X%X%X/.` ` } } } } } ",
"} } } } } } H c.oX#XoXI.$.m g y $ + # $ t s , : q j V C j j V C j u u j j u j j j w q j j k s t + & y j m b.@X%X X,.L } } } } } ",
"} } } } } } H J.#X#X}.1.g j l d y : & & + % : t j j x Z w q j j h j j j j y k k j : q j j u q g , & p j g n ~.%XOX1.G } } } } } ",
"} } } } } &.T T.#X#X].R y p d d t z z z q & t d j l j x t # y t j j j u w w k k t & j j p q % & ; , j j j s J.%X#Xv.G } } } } } ",
"} } } } } Q ' `.%X#X[.T , j j s 0 j x j j d , s j j j y y & $ 1 j j k j q # a w # * d j p , : + + q j j u 1 P.#X@XS.G 9.} } } } ",
"} } } } } L <.OX%X%X.X-.+ w s a q j j j j j : , d j j t t t , , h j j k k # @ o # w y j y * d g z , t y & < Y.%X$XQ.L 3.} } } } ",
"} } } } } F 7.#X#X#X#XD.2 + ; + q j j j u j q # w j j * : 1 z , w j x j h * : : s a w j q , j j V t + # o 3 (.#X#X'.` { } } } } ",
"} } } } } G N.%X$X#X#X{.d.f + O : j j j y j j w @ : ; , q ; s , # j j j t # p j h q e j y j j p j k & @ o ] OX#X#XOX<.` } } } } ",
"} } } } <.J J.%X@X%X#X#X].Z.2.f o w k k t p j d & + + t r # : d q y j s & + t u q + t j t u j j p g 1 + H ).#X%X#X#X0.J } } } } ",
"} } } } O.L E.@X#X#X#X#X@X{.U.[ + + , q , j j p t , & r i q * x j # : # o o + + o + s j q q j j y 1 > ! _.#X#X#X#X%X0.M } } } } ",
"} } } } T ' ].%X%X#X#X#X#X#X.XR.,.2 o o & u j g y s : 0 = e , j x ; o o o . o o o o , d w # w u a c q..X#X#X@X+X#X#XN.G l.} } } ",
"} } } } J =..X#X%X#X$X#X#X+X@X+X|.G.-.v $ & t , * t 0 * $ % % e k t * @ o o . o X X X & # O 3 T g.).#X#X#X#X@X@X#X%XL.G 3.} } } ",
"} } } } H 8.#X%X+X#X+X#X#X#X+X+X#X#X+X).v.O.c 4 a O + + X X X % t t t : .     O - - 4 v +.n.Q..X@X#X#X#X+X#X#X#X#X+X).` *.} } } ",
"} } } } K J.#X%X#X#X@X@X@X%X@X@X#X$X$X%X@XOX'.).R.N.8.5.X.I S b I R ' R Q *.5.q.N.K.(..X#X%X%X%X@X#X#X#X@X@X#X#X#X+X X=.Q 5 } } ",
"} } } } T Q.$X%X#X#X#X@X@X@X+X$X#X#X$X%X#X@X#X%X%X%X%X#XoXoX|..X}..XoXXX#X#X#X#X%X%X%X#X@X+X%X#X#X#X#X#X#X#X+X@X#X@XOX-.7 } } } ",
"} } } } Q /.#X#X#X$X#X#X@X+X#X#X#X#X#X#X#X#X#X%X#X#X#X#XoX#X#X#X#X#X#X%X#X@X#X@X#X#X#X#X+X%X#X#X#X#X#X#X#X+X@X@X@X%X#X9.A } } } ",
"} } } Q E `.%X#X#X#X#X#XoXoX#X#X@X#X@X@X#X%X%X#X#XoX#X#X#X%X#X%X@X@X@X#X%X@X#X@X@X@X@X+X#X#X+X#X#X@X@X+XoXoX#X#X#X#X#XN.F z.} } ",
"} } } L <.OX#X#X#X#X#X#X#X#X#X#X@X#X+X@X#X#X#X#X#X#X#X#X#X@X@X#X#X#X%X#X#X%X#X#X#X#X+X@X@X@X@X@X$X#X#X#X#XoX#X#X#X#X#XD.K 3.} } ",
"} } } H d.+X$X@X@X#X#X#XoX#X#X#X+X#X#X@X#X#X#X%X%XoX#X#X#X%X%X#X#X@X#X#X%X#X@X#X$X#X@X@X+X#X@X#X#X#X#X#XoX#X#X#X#X#X%XT.T ;.} } ",
"} } } G Z.#X#X@X#X@X#X#X#XoX#X#X$X#X#X$X#X#X#X#X%X#X#X#X#X@X#X#X#X%X%X#X#X#X@X#X#X#X+X#X#X#X@X+X#X#X#X+X#XoX#X#X#X#X#X X[ Q } } ",
"} } } L Y.#X#X@X#X#XoX#X#XoXoX#X#X+XoXoXoX#X#X%X#XoXoXoX%X+X#X#X#X#X#X#X#X#X#X#X@X+X#X#X#XoX#XoX#X#X#XoX#XoXoX#X#X#X#X X,.K } } ",
"} } { ' `.$X#X#X#XoX#XoXoX#X#XoX#X#XoX#X#X+X+X#XoXA.f.G.XX#X$X%X%X%X#X#XXXW.).#X+X@X#X#X#X#XoX#XOX#XoX#XoX#X#XoX#X#X$X@X7.F } } ",
"} } Q ]  X#X#X#X#XoXoXoX#XoX#XoXoX#X#XoXoX#X#X#X~.y.e.y.~.#X$X#X#X#X%X.XB.y.f.].#X#X#X#X#XoX#XoX#X#XoXoX#XoXoX#X#X#X#X#Xv.F } } ",
"} } K -.XX#X#X#XoX#XoX#XoX#XoX#X#XoXoX#XoX#X#X#XI.y.r.y.Z.+X%X#X#X%X%XR.y.w.e.G.#X#X#X#X#X#XoX#X#XoX#XoXoX#X#XoXoX+X#X%XV.F } } ",
"} } H 0.#X#X#X#X#XoX#XoX#XoXoXoXoX#X#XoX#XoXoX#XI.2.w.2.k.^.{.]..X].{.B.w.w.w.h..X#X#X#X#X#XoXoX#XoX#XoXoX#XoX#XoX#X#X@XE.H } } ",
"} l.H M.%X#X#X$X#XoXoX#X#XoX#XoX#XoXoX#XoX#XoX#X).p.r.y.i.i.s.p.f.p.s.u.2.e.w.f.|.#X#X#X#XoXoX#XoX#XoXoXoXoX#XoX#X#X%X%X~.Q W } ",
"} :.J Y.%X%X%X#X#XoX#XoXoX#XoX#XoX#XoXoXoX#X#X#XXXC.e.r.r.y.e.y.y.r.w.e.r.e.t.A.#X#X#X#X#X#X#XoX#XoXoX#XoXoXoX#XoXoX#X#XY.Y K } ",
"} [ T ^.%X#X@X@X#X#XoX#X#XoX#XoX#XoXoX#X#XoXoX#X}.f.e.e.i.p.p.i.u.u.y.r.w.y.y.~.#X$X#X#X#XoXoX#XoX#X#XoX#XoXoX#X#X#X#X#XM.F K } ",
"} Q Y T.%X#X%X#X#X#X#XoXoX#XoX#X#XoX#XoXoX#XoX#X_.p.e.e.B.).].[.^.~.~.h.w.w.2.G.#X#X#X@X@X+X#XoX#X#XoX#X#XoX#XoX#X#X@XoX6.F A } ",
"} T J M.#X#X#X#X#X#X#X#XoXoX#XoXoX#XoX#X#XoXoX#X}.p.e.2.G.%X%X%X%X#X+XZ.w.w.w.F.#X@X#X$X#X#XoX#XoXoX#XoXoX#XoX#X#XoX#X'.^ A } } ",
"} ^ H -..X#X%X#X#X#X#X#X#XoXoX#X#XoX#XoXoX#XoX#XXXC.e.s.].%X+X+X#X#X%XQ.t.t.y.E.%X+X#X#X#XXX#XoXoX#XoX#X#XoX#X#XoX@X#X} 6 5 } } ",
"} } H H g.#X%X#X#X#X#X#XoX#X#XoX#XoXoXoX#XoX#XoX#X}.W.).+X+X%X#X#X#X#X.Xb.u.h..X+X+X#X#X#X#XoX#XoXoX#XoXoXoX#X#X#X#X(.} S } } } ",
"} }  .K T S.oX#X#X#X#X#X#X#X#XoX+XoX#X#XoX#XoX#X#X#X#X#X+X+X#X#X@X#X@X#X{.^.].#X@X#X#X#X#X#XoX#X#XoX#X#X#X#XoX#X#XoX} F } } } } ",
"} } } %.K Q D.oX#X@X#X#X#XOXoX#X#X#XoXoX#XoX#X#XoXoX#X#X@X@X$X#X#X#X#X#X#X#X#X#X#X#X#X#X#XoX#XoXoX#XoX#X#X#X#X#X#Xx.P K } } } } ",
"} } } } ;.J ! J.#X@X#X+X#X#X#X#X@X+X#X#X#X#X#XOX@X#X#X#X@X@X#X#X#X@X#X#X#X#X#X#X#X@X#X#X#XoXoX#X#X#X#X#X#X#X#X@X_.} N } } } } } ",
"} } } } } ^ J ' Y.#X#X+X+XOX#X#X@X@X@X#X#X#X#X#X#X#X#X@X@X#X@X@X@X@X#X$X#X#X#X@X@X@X#X#X#XoX#XoX#X#X#X#X#X@X#X_.-.U } } } } } } ",
"} } } } } } ~ J ` G.OX#X+X#X%X@X#X$X#X@X@X#X#X#X#X#X@X@X@X#X#X#X@X#X@X@X#X#X#X#X@X#X%X+X#X#X#X#XoX#X#X%X#X%X(.=.J W } } } } } } ",
"} } } } } } } ] G T M..X+X+X#X+X#X#X#X#X#X#X@X#X#X#XOX#X@X#X#X$X+X#X$X+X#X#X@X#X#X#X$X#X#X#X#X#XoX#X#X%XoX^.+.F Y ..} } } } } } ",
"} } } } } } } } { J L 0./.%X#X#X#X#X#X#X#X#X#X#X@X#X#X#X#X#X#X#X@X@X#X#X#X#X@X#X#X#X#X#X#X#X#X+X#X#X#X}.P.O.B P } } } } } } } } ",
"} } } } } } } } } ^ G H =.D. X$X#X#X#X#X#X@X#XoX#XOXOX@X#X#X@X#X+X@X%X#X@X#X#X#X#X#X#X#X#X#X#X@X#X|.W.q.} B } } } } } } } } } } ",
"} } } } } } } } } } } K J D =.S.{.+X#X+X#X#X#X#X#X+X#X#X#X#X#X#X@X+X#X#X#X#X#X#X#X#X#X#X#X@X#XOXY.5.W H J } } } } } } } } } } } ",
"} } } } } } } } } } } } } G J L =.d.L.].XX#X#X#X#X#X#X#X#X#X#X#X#X#X#X#X#X#X#X#X#X#X#XoX}.E.M.<.Q F G T } } } } } } } } } } } } ",
"} } } } } } } } } } } } } } 8 G J G W ] 1.V.Y.).|.XXoXoX#X#X#X#X#X#X#XoX#X#X#XoX.X'.J.v.-.Q K G G K *.} } } } } } } } } } } } } ",
"} } } } } } } } } } } } } } } } } I F J J J Q [ -.6.v.F.I.Y.!.].).).).!.Y.J.N.d.6.=.T K I I K Q 3.} } } } } } } } } } } } } } } ",
"} } } } } } } } } } } } } } } } } } } 9 U P P P J G J J Y T ` +.O.( ' ' T T J G H F J H Q | } } } } } } } } } } } } } } } } } } ",
"} } } } } } } } } } } } } } } } } } } } } } } >.! Q L I J J G N N J G J L G J D } &.} } } } } } } } } } } } } } } } } } } } } } ",
"} } } } } } } } } } } } } } } } } } } } } } } } } } } } } } } } } } } } } } } } } } } } } } } } } } } } } } } } } } } } } } } } ",
"} } } } } } } } } } } } } } } } } } } } } } } } } } } } } } } } } } } } } } } } } } } } } } } } } } } } } } } } } } } } } } } } "
};
