/* XPM */
static char *result[] = {
/* columns rows colors chars-per-pixel */
"64 64 235 2 ",
"   c #020100",
".  c #0C0402",
"X  c #0B0803",
"o  c #0A0A0A",
"O  c #130601",
"+  c #190601",
"@  c #140A05",
"#  c #1C0A02",
"$  c #130D09",
"%  c #1A1109",
"&  c #1D120C",
"*  c #0D1112",
"=  c #131313",
"-  c #171919",
";  c #1B1A1B",
":  c #220D02",
">  c #2B0E02",
",  c #370E02",
"<  c #241103",
"1  c #2B1304",
"2  c #22140C",
"3  c #2B170A",
"4  c #301606",
"5  c #351907",
"6  c #3B1C06",
"7  c #3C1B0B",
"8  c #2B1B12",
"9  c #241C18",
"0  c #341E12",
"q  c #0F2013",
"w  c #162E1C",
"e  c #33210E",
"r  c #352115",
"t  c #392216",
"y  c #3B2619",
"u  c #3A271B",
"i  c #1D3B24",
"p  c #272424",
"a  c #2B2A2B",
"s  c #362B24",
"d  c #322D2D",
"f  c #38322A",
"g  c #3E3A2A",
"h  c #353333",
"j  c #3A3938",
"k  c #441D04",
"l  c #482507",
"z  c #44220A",
"x  c #4D250B",
"c  c #52280B",
"v  c #54290D",
"b  c #5B2C0C",
"n  c #5A330B",
"m  c #472817",
"M  c #442B1C",
"N  c #562A10",
"B  c #5D2E11",
"V  c #4D301F",
"C  c #5F3012",
"Z  c #642E0B",
"A  c #66310E",
"S  c #6B340E",
"D  c #683A0A",
"F  c #612C19",
"G  c #653313",
"H  c #6B3613",
"J  c #623D15",
"K  c #6D3914",
"L  c #743A13",
"P  c #743915",
"I  c #7C3D15",
"U  c #4C2E22",
"Y  c #4C3221",
"T  c #47352A",
"R  c #543523",
"E  c #593723",
"W  c #563927",
"Q  c #5D3A25",
"!  c #5D3C29",
"~  c #473A35",
"^  c #553B31",
"/  c #603C27",
"(  c #6C3827",
")  c #623E29",
"_  c #7C3C21",
"`  c #2B5936",
"'  c #2F613B",
"]  c #30633C",
"[  c #79440C",
"{  c #6C4010",
"}  c #794415",
"|  c #57402E",
" . c #564239",
".. c #65422D",
"X. c #69442E",
"o. c #7B462C",
"O. c #7D552D",
"+. c #6B4630",
"@. c #6A4735",
"#. c #744D35",
"$. c #7B5138",
"%. c #3F4041",
"&. c #346B41",
"*. c #397547",
"=. c #3C7B4B",
"-. c #4A4848",
";. c #544C4A",
":. c #5B534A",
">. c #5A5555",
",. c #74554D",
"<. c #645D5C",
"1. c #666668",
"2. c #746967",
"3. c #7A7371",
"4. c #813F14",
"5. c #8F3E21",
"6. c #834215",
"7. c #8A4417",
"8. c #8C4B16",
"9. c #844719",
"0. c #8C4618",
"q. c #8F4B18",
"w. c #934817",
"e. c #924D19",
"r. c #8D5217",
"t. c #995716",
"y. c #94521A",
"u. c #99561A",
"i. c #9D5C1B",
"p. c #B24217",
"a. c #98751F",
"s. c #A0611C",
"d. c #894825",
"f. c #94522A",
"g. c #8B4A31",
"h. c #87583B",
"j. c #995738",
"k. c #AA5A2B",
"l. c #A75838",
"z. c #986F2B",
"x. c #96663A",
"c. c #A17925",
"v. c #D3592C",
"b. c #F86832",
"n. c #8B5C41",
"m. c #905F42",
"M. c #956344",
"N. c #9C6747",
"B. c #84675B",
"V. c #966A55",
"C. c #A56D46",
"Z. c #A36B4B",
"A. c #BD6643",
"S. c #AC724E",
"D. c #AD7949",
"F. c #B27B4A",
"G. c #A66A54",
"H. c #AF7253",
"J. c #B27652",
"K. c #B77954",
"L. c #BA7B55",
"P. c #B7765C",
"I. c #BD7D5A",
"U. c #887368",
"Y. c #9A7766",
"T. c #857976",
"R. c #C56945",
"E. c #D9744D",
"W. c #C17F59",
"Q. c #F97E4F",
"!. c #E77D54",
"~. c #C27D60",
"^. c #3F824F",
"/. c #B99906",
"(. c #B68F1A",
"). c #AA8122",
"_. c #C49E14",
"`. c #C9A904",
"'. c #DABB00",
"]. c #CEA419",
"[. c #E4BE03",
"{. c #E5C700",
"}. c #F8D700",
"|. c #ECC013",
" X c #FFE602",
".X c #B5814C",
"XX c #BD865A",
"oX c #95837B",
"OX c #A88779",
"+X c #C18057",
"@X c #C5835D",
"#X c #C9865E",
"$X c #EB8259",
"%X c #F98459",
"&X c #C98764",
"*X c #C98F6C",
"=X c #FE8D62",
"-X c #E4957A",
";X c #958C8A",
":X c #978C8B",
">X c #9D9493",
",X c #B39788",
"<X c #A89590",
"1X c #A79B99",
"2X c #A9A19F",
"3X c #BAA395",
"4X c #ACA4A3",
"5X c #ABA9A9",
"6X c #B6AAA8",
"7X c #B6B0AD",
"8X c #BBB5B3",
"9X c #B9B6B3",
"0X c #C7AB9B",
"qX c #D3A998",
"wX c #CCB3A3",
"eX c #D4B6AE",
"rX c #D4BAAA",
"tX c #C6BAB8",
"yX c #C3C2BE",
"uX c #DAC2B9",
"iX c #E1CCBD",
"pX c #CCC5C2",
"aX c #D5C9C7",
"sX c #DDD4D3",
"dX c #E4DAD7",
"fX c #E6DDDA",
"gX c #E8E0DE",
"hX c #F1E4DA",
"jX c #EDE6E3",
"kX c #F3E9E1",
"lX c #F3EFEB",
"zX c #F5F2EE",
"xX c #FAF5F1",
"cX c #FDFAF5",
"vX c #FCFBF6",
/* pixels */
"^.^.^.^.^.^.^.^.^.^.^.^.^.^.^.^.^.^.^.^.^.^.^.^.^.^.^.^.^.^.^.^.^.^.^.^.^.^.^.^.^.^.^.^.^.^.^.^.^.^.^.^.^.^.^.^.^.^.^.^.^.^.^.^.",
"^.^.^.^.^.^.^.^.^.^.^.^.^.^.^.^.^.^.^.^.^.^.^.^.^.^.^.^.^.^.^.^.^.^.^.^.^.^.^.^.^.^.^.^.^.^.^.^.^.^.^.^.^.^.^.^.^.^.^.^.^.^.^.^.",
"^.^.^.^.^.^.^.^.^.^.^.^.^.^.^.^.^.^.^.^.^.^.^.^.^.^.^.^.^.^.^.^.^.^.^.^.^.^.^.^.^.^.^.^.^.^.^.^.^.^.^.^.^.^.^.^.^.^.^.^.^.^.^.^.",
"^.^.^.^.^.^.^.^.^.^.^.^.^.^.^.^.^.^.^.^.^.^.^.^.^.^.^.^.^.^.^.^.^.^.^.^.^.^.^.^.^.^.^.^.^.^.^.^.^.^.^.^.^.^.^.^.^.^.^.^.^.^.^.^.",
"^.^.^.^.^.^.^.^.^.^.^.^.^.^.^.^.^.^.^.^.^.^.^.^.^.^.^.^.^.^.  . .   ^.^.^.^.^.^.^.^.^.^.^.^.^.^.^.^.^.^.^.^.^.^.^.^.^.^.^.^.^.^.",
"^.^.^.^.^.^.^.^.^.^.^.^.^.^.^.^.^.^.^.^.^.^.^.^.^.^.^.^.*   t / / y   * ^.^.^.^.^.^.^.^.^.^.^.^.^.^.^.^.^.^.^.^.^.^.^.^.^.^.^.^.",
"^.^.^.^.^.^.^.^.^.^.^.^.^.^.^.^.^.^.^.^.^.^.^.^.^.=.^.  $ ! / / Q / W $   ;.^.^.^.^.^.^.^.^.^.^.^.^.^.^.^.^.^.^.^.^.^.^.^.^.^.^.",
"^.^.^.^.^.^.^.^.^.^.^.^.^.^.^.^.^.^.^.^.^.^.^.^.^.o   M ) / Q 2 M ) ! ) M     ^.^.^.^.^.^.^.^.^.^.^.^.^.^.^.^.^.^.^.^.^.^.^.^.^.",
"^.^.^.^.^.^.^.^.^.^.^.^.^.^.^.^.^.^.^.^.^.^.^.j   3 ! / / V       2 / Q Q ! 2   j ^.^.^.^.^.^.^.^.^.^.^.^.^.^.^.^.^.^.^.^.^.^.^.",
"^.^.^.^.^.^.^.^.^.^.^.^.^.^.^.^.^.^.^.^.^.^.    Y ) Q Q 3   t J.$.    V / E ) V     ^.^.^.^.^.^.^.^.^.^.^.^.^.^.^.^.^.^.^.^.^.^.",
"^.^.^.^.^.^.^.^.^.^.^.^.^.^.^.^.^.^.^.^.p   8 ! Q / R     #.@XL.@XS.0   8 / Q Q / 8   p ^.^.^.^.^.^.^.^.^.^.^.^.^.^.^.^.^.^.^.^.",
"^.^.^.^.^.^.^.^.^.^.^.^.^.^.^.^.^.^.^.  X R / Q / 0   3 Z.@XL.L.L.I.@X+.  . R / E ! R .   ^.^.^.^.^.^.^.^.^.^.^.^.^.^.^.^.^.^.^.",
"^.^.^.^.^.^.^.^.^.^.^.^.^.^.^.^.^.=   r ) Q ! E $   / +XW.K.L.L.L.L.L.@XZ.#   r ..E Q / t   = ^.^.^.^.^.^.^.^.^.^.^.^.^.^.^.^.^.",
"^.^.^.^.^.^.^.^.^.^.^.^.^.^.^.^.  @ W / E ) y   @ M.#XL.L.L.L.L.L.L.L.K.W.+XQ   $ E ! E / E @   ^.^.^.^.^.^.^.^.^.^.^.^.^.^.^.^.",
"^.^.^.^.^.^.^.^.^.^.^.^.^.^.o   M / Q ! / #   Y I.+XK.L.L.L.L.L.L.L.L.L.L.L.@XM.@   y ..E E ..M   o ^.^.^.^.^.^.^.^.^.^.^.^.^.^.",
"^.^.^.^.^.^.^.^.^.^.^.^.%.  % ! / E ) M   . h.#XL.L.L.L.L.L.L.L.L.L.L.L.L.W.L.@XL.V   # ! / E / ! 2   j ^.^.^.^.^.^.^.^.^.^.^.^.",
"^.^.^.^.^.^.^.^.^.^.^.    V / E E ! 3   r J.@XK.I.L.L.L.L.L.L.L.L.L.L.L.J.x.N.I.L.#Xh..   M ..R E / U     ^.^.^.^.^.^.^.^.^.^.^.",
"^.^.^.^.^.^.^.^.^.a   8 ! E E ! Y .   #.@XI.K.L.L.L.L.L.L.K.L.L.L.L.I.@Xz.{.`.Z.I.K.+XJ.y   2 ..Q E ! / 8   a ^.^.^.^.^.^.^.^.^.",
"^.^.^.^.^.^.^.^.    R / E E Q 0   & N.@XK.K.L.L.I.+XXX.XI.XXW.W.I.H.V.h./. X/.N.+XL.S.J.@X$.    V ) E E / R .   ^.^.^.^.^.^.^.^.",
"^.^.^.^.^.^.-   0 ! E R E R O   ! N.S.K.K.L.L.I.J.h.Z.H.G.G.M.x.c.(.`.'.}. X'.z.L.L.L.L.L.@XS.8   2 Q / E Q / r   - ^.^.^.^.^.^.",
"^.^.^.^.^.  O W / E E ! u   . #.M.#.N.K.L.L.L.P.a.{.`.)./.`.'.[.'.`.(.z.z.].|.a.J.L.L.L.K.N.S.J...    M ! E E / E @   ^.^.^.^.^.",
"^.^.^.o   y ) Q E ! R $   r M r u r $.J.K.L.L.I.z.}. X}.[._.).x.M.N.G.P.J.x.h.S.I.L.L.#.X...W @.J.N.2   # E / E Q ) y   o ^.^.^.",
"^.^.  % ! / E Q / t     ..) 1 # < % @ N.L.L.K.+XN.'. Xc.n.G.H.I.W.W.W.L.L.W.W.W.L.L.U M M m 0 m #.Z.J.!     t ! Q E / Q %   ^.^.",
"^.  r ..E E / R @   t #.M 0 b S [ n # . h.L.L.I.N./._.j.W.L.L.L.L.L.L.L.L.L.L.L.L.h.8 m } 9.L v t R M.#XM.@   @ R / E Q ..r   ^.",
"^.  R Q Q / r     #.I.+.$ : A } } D 6 1 6 J.K.I.L.M.M.I.L.L.L.L.L.L.L.L.L.L.L.L.C.7 e n { r.9.n O 8 h.K.@XL.Y     8 ! Q Q R   ^.",
"^.a . ..Y     @ Z.@XJ.X.@ : b b 4 6 n { 5 # K..XL.+XW.L.L.L.L.L.L.L.L.L.L.L.K.g.% l [ n 4 e G x O 8 n.L.K.L.#Xh.      U X.. a ^.",
"^.^.      -.h t #XJ.J.X.$ # x x # < n { l < I.L.L.L.L.L.L.L.L.L.L.L.L.L.L.L.K.4 < c { v # 1 v z . 2 +.L.L.L.K.#X1 -.-.      ^.^.",
"^.^.^.^.^.^.^.3 #XK.J.#.$ + x B c 6 1 5 n { z O . O . . . . . . O . O . X X # c { n 4 1 z v C z O     N.+XK.K.@X+ ^.^.^.^.^.^.^.",
"^.^.^.^.^.^.^.4 #XK.J.#.@ # b K J c : 1 { r.z     + # + + + + + + + + # O     n y.n # 4 B K K x O     Z.I.L.L.#X+ ^.^.^.^.^.^.^.",
"^.^.^.^.^.^.^.4 #XK.I.@.% > A I K C v N 6.} 5   > Z A A A A A H A A A A v #   x 6.P v v G P I v O & @.@XK.L.K.@X# ^.^.^.^.^.^.^.",
"^.^.^.^.^.^.^.4 #XK.L.m.$ 1 L 7.L C v N P P k > v 8.y.e.e.e.e.e.e.e.e.y.6.k 1 b 4.K v v G P 7.Z + 2 X.M.L.L.L.@X# ^.^.^.^.^.^.^.",
"^.^.^.^.^.^.^.4 #XK.L.N.  1 L 7.L x < : Z 7.P L 6.i.i.i.i.i.i.i.i.i.i.i.t.I S I 6.x # 4 B I 7.G + 8 S.K.L.L.L.#X+ ^.^.^.^.^.^.^.",
"^.^.^.^.^.^.^.4 #XL.L.N.  # c A v 7 + : b 7.w.w.f.s.s.s.s.s.s.s.s.s.s.s.s.y.e.w.4.v : : z B A v > J.L.L.L.L.L.@X# ^.^.^.^.^.^.^.",
"^.^.^.^.^.^.^.4 #XK.L.L.    O + @ # 5 v P q.y.i.s.s.s.s.s.s.s.s.s.s.s.s.s.s.i.e.4.H k 4 + O + 4 I.J.L.L.L.L.K.@X# ^.^.^.^.^.^.^.",
"^.^.^.^.^.^.^.4 #XK.L.L.:         : x K 4.0.u.s.s.s.s.s.s.s.s.s.s.s.s.s.s.s.s.y.9.I G k +     # L.L.L.L.L.L.L.@X+ ^.^.^.^.^.^.^.",
"^.^.^.^.^.^.^.4 #XK.L.L.L.1   . 5 v C K I 0.u.s.s.s.s.s.s.s.s.s.s.s.s.s.s.s.s.e.9.I G B x >   @ L.J.L.L.L.L.L.@X@ ^.^.^.^.^.^.^.",
"^.^.^.^.^.^.^.4 #XK.L.L.L.L.L.O x H H L 4.0.y.i.s.s.s.s.s.s.s.s.s.s.s.s.s.s.u.e.7.P K K G 6   @ L.L.L.L.L.L.L.@X# ^.^.^.^.^.^.^.",
"^.^.^.^.^.^.^.4 #XL.L.L.K.| X O x K I 6.4.7.0.e.u.s.s.s.s.s.s.s.s.s.s.s.s.y.w.0.7.7.4.I G 6 . % L.L.L.L.L.L.L.@X# ^.^.^.^.^.^.^.",
"^.^.^.^.^.^.^.4 #XK.L.L.K.s . . x K I 7.7.7.7.0.y.i.i.i.i.u.i.u.i.i.i.i.u.e.7.7.7.7.7.4.H 6   $ T J.L.L.L.L.L.&XO ^.^.^.^.^.^.^.",
"^.^.^.^.^.^.^.4 &XL.L.N.% o   O x K 6.7.0.7.7.0.q.e.r.q.q.q.q.q.q.q.e.e.e.q.0.7.7.7.7.I H 7     $ r K.L.L.L.K.@X# ^.^.^.^.^.^.^.",
"^.^.^.^.^.^.^.4 #XK.L.#..   . 1 x K 4.0.0.7.P S A A L 4.0.0.7.7.7.7.4.H Z A A I 7.7.7.I G m : .   o S.L.L.L.L.#X# ^.^.^.^.^.^.^.",
"^.^.^.^.^.^.^.4 #XL.J.R $ . 7 N B K I 0.0.I k : + + k 4.w.4.7.7.7.7.P 6 O @ > b 7.7.7.I H B x 4   & #.K.L.L.K.@X# ^.^.^.^.^.^.^.",
"^.^.^.^.^.^.^.4 #XK.L.#.% + N G G H I 0.w.P 4   ; j ..} w.w.q.w.8.w.I ^ h *   k 4.q.7.I H G G k O % M.K.L.L.K.@X# ^.^.^.^.^.^.^.",
"^.^.^.^.^.^.^.4 #XK.L.@.$ + v H G H I 0.w.P , o 1.9X,Xf.8.t.i.u.y.w.M.3X5X-.. 6 4.w.7.L G G G k . X M.L.L.L.L.@X# ^.^.^.^.^.^.^.",
"^.^.^.^.^.^.^.4 &XZ.n.@.s s m B I d.9.6.w.} 4 . 1.9X,Xf.8.i.s.s.t.7.N.3X5X-.  z 7.q.6.9.d.P N m s ; #.M.S.L.K.@X# ^.^.^.^.^.^.^.",
"^.^.^.^.^.^.^.4 ~.#.t ;.T.<.9 x l.A.d.L q.9.6   ; j ! 6.8.i.s.s.t.w.} | h * . c y.9.L k.R.g.5 d 2.2.~ T h.L.L.&X# ^.^.^.^.^.^.^.",
"^.^.^.^.^.^.^.4 I.! o ;.1XT.= 7 A.$Xl.q.y.r.n < + + x g.x..X.X.XD.x.g.7 X # 1 D y.f.d.l.$Xl.# d :X:Xd & #.L.L.@X# =.^.^.^.^.^.^.",
"^.^.^.^.^.^.^.4 I.! @ ;.1XT.= 7 A.=X!.R.k.8.[ [ D A h.OX3XrXrXrX0X,XY.o.A D [ 8.r.k.E.$X%Xj.# a :X>Xh 2 #.K.L.#X# ^.^.^.^.^.^.^.",
"^.^.^.^.^.^.^.4 XX! . ;.1X:X;.^ j.R.!.!.A.h.C.F.C.Z.V.T.;X1X4X4X>XT.U.V.Z.D.D.N.l.R.!.!.A.g.~ >.1X:Xf 2 #.L.L.@X# ^.^.^.^.^.^.^.",
"^.^.^.^.^.^.^.4 I.! O -.1XtX6XT.T F R.=X~.,X3XeXrX0XU.d p d h d h p ~ oXwXrXwX,X,X&X!.l.m  .;X7XtX:Xh 2 #.K.K.&X+ ^.^.^.^.^.^.^.",
"^.^.^.^.^.^.^.4 XX#.u -.T.6XaX2X;. .I.-XqX6XpXsXgXsX;Xd o         = -.4XfXfXsXtX6XqX-XG.~ 1.tXpX1X2.d U n.K.K.&X# ^.^.^.^.^.^.^.",
"^.^.^.^.^.^.^.4 &XZ.m.@.f <.6XtX6X4XeXuXpXaXaXsXjXjXpXT.-.      = >.>XaXlXjXsXaXaXeXuXwX1X6XtX1X;.p U S.S..XK.@X# ^.^.^.^.^.^.^.",
"^.^.^.^.^.^.^.4 &XZ.x.| $ p 2.4XaXfXgXgXfXdXfXfXlXzXaX<X,.z k , U B.2XdXxXjXfXfXfXfXgXgXdXyX<X>.=   T Z.S.I.K.#X# ^.^.^.^.^.^.^.",
"^.^.^.^.^.^.^.4 @X#.r & .   ; <.7XgXzXzXzXzXlXzXvXlX6XB.g.p.p.p.5.g.U.pXxXvXlXlXlXxXxXlXgX2X-.$     & Y h.L.K.#X# ^.^.^.^.^.^.^.",
"^.^.^.^.^.^.^.3 M.| p & : # # T oX5X8XpXgXzXcXcXvXjX1X@.5.v.b.b.v._ ,.tXzXvXvXvXzXsXtXtX2X2.r # : 2 9 s @.m.Z.#X# ^.^.^.^.^.^.^.",
"^.^.^.^.^.^.=.# u :.oXV.o.[ [ J T h j >.5XgXcXcXcXdX<X@.g.E.Q.Q.A.g.,.3XjXvXvXvXsX:X-.h d Y { [ [ O.Y.3. .u $.@X# ^.^.^.^.^.^.^.",
"^.^.^.^.^.^.*.@ o <.tXwXXX.X.XO.%     * <.2X9X9X7X<X2.T g.!.=X%XR.( ^ T.2X9X9X7X>X-.      e x.D..X*XrX5X-.$ +.+X# ^.^.^.^.^.^.^.",
"^.^.^.^.^.^.*.@ o 3.sXhXuXrX0XU.9       ; d h h h d 9 @ / E.=X=XR.m $ 9 d h h h a *       g OXwXrXiXkXpX;.o +.I.# ^.^.^.^.^.^.^.",
"^.^.^.^.^.^.*.% s 2.5X9X5X>XoX2.; f g g g g g g f g T g ..l.A.A.j.^ T f g g g g g g g g g :.T.>X1X5X8X4X:.u h.&X: ^.^.^.^.^.^.^.",
"^.^.^.^.^.^.=.    ; h j d f p ; o   X X X X X X X X X . $ 8 0 0 > @ . o X X X X X X X X . $ ; a d h j d =         ^.^.^.^.^.^.^.",
"^.^.^.^.^.^.^.^.^.` w q q q q i &.^.^.^.^.^.^.^.^.^.^.^.` w - q i &.^.^.^.^.^.^.^.^.^.^.^.' w q q q q w ' ^.^.^.^.^.^.^.^.^.^.^.",
"^.^.^.^.^.^.^.^.^.*.] ] ] ] ] &.=.^.^.^.^.^.^.^.^.^.^.^.*.&.] ] &.=.^.^.^.^.^.^.^.^.^.^.^.=.&.] ] ] ] &.*.^.^.^.^.^.^.^.^.^.^.^.",
"^.^.^.^.^.^.^.^.^.^.^.^.^.^.^.^.^.^.^.^.^.^.^.^.^.^.^.^.^.^.^.^.^.^.^.^.^.^.^.^.^.^.^.^.^.^.^.^.^.^.^.^.^.^.^.^.^.^.^.^.^.^.^.^.",
"^.^.^.^.^.^.^.^.^.^.^.^.^.^.^.^.^.^.^.^.^.^.^.^.^.^.^.^.^.^.^.^.^.^.^.^.^.^.^.^.^.^.^.^.^.^.^.^.^.^.^.^.^.^.^.^.^.^.^.^.^.^.^.^."
};
