/* XPM */
static char *result[] = {
/* columns rows colors chars-per-pixel */
"64 64 220 2 ",
"   c #010101",
".  c #0A0602",
"X  c #0E0804",
"o  c #0D0C0C",
"O  c #080708",
"+  c #140A05",
"@  c #1C0E05",
"#  c #110F0D",
"$  c #1F1107",
"%  c #14110E",
"&  c #1E110A",
"*  c #131211",
"=  c #1A1513",
"-  c #1D1914",
";  c #1B1A1B",
":  c #151819",
">  c #210E02",
",  c #231206",
"<  c #2B1506",
"1  c #231309",
"2  c #2A160A",
"3  c #2D1A0B",
"4  c #27180A",
"5  c #331B0C",
"6  c #3A1D0C",
"7  c #361607",
"8  c #211E1D",
"9  c #241912",
"0  c #381E14",
"q  c #3C220E",
"w  c #35210B",
"e  c #2A221D",
"r  c #3D2212",
"t  c #3B281B",
"y  c #1E2123",
"u  c #242121",
"i  c #2A2625",
"p  c #2D2A29",
"a  c #2F2826",
"s  c #322E2D",
"d  c #362C26",
"f  c #3B322A",
"g  c #343232",
"h  c #393635",
"j  c #3C3A39",
"k  c #3A3837",
"l  c #302E30",
"z  c #431F09",
"x  c #42240E",
"c  c #49250D",
"v  c #452A0F",
"b  c #432412",
"n  c #4A2713",
"m  c #4C2913",
"M  c #472919",
"N  c #532C15",
"B  c #5A2E14",
"V  c #512B1E",
"C  c #523111",
"Z  c #5C3115",
"A  c #5D3914",
"S  c #5E3218",
"D  c #53331E",
"F  c #52270D",
"G  c #69350F",
"H  c #653315",
"J  c #6B3616",
"K  c #65361A",
"L  c #69371A",
"P  c #6C391B",
"I  c #693B17",
"U  c #743D1A",
"Y  c #7A3F1B",
"T  c #743A17",
"R  c #47382D",
"E  c #50332A",
"W  c #463B38",
"Q  c #553D35",
"!  c #6C3C27",
"~  c #783D25",
"^  c #6B4217",
"/  c #6A4119",
"(  c #714518",
")  c #7D411C",
"_  c #794715",
"`  c #4E4239",
"'  c #58473A",
"]  c #6B4429",
"[  c #7B4526",
"{  c #654636",
"}  c #794C33",
"|  c #7C5537",
" . c #494443",
".. c #4C4B4B",
"X. c #4B4544",
"o. c #534D4C",
"O. c #57504B",
"+. c #5B5656",
"@. c #755947",
"#. c #655C5A",
"$. c #6D584D",
"%. c #7E665A",
"&. c #7A614B",
"*. c #676566",
"=. c #776C69",
"-. c #7E7574",
";. c #79706E",
":. c #83431C",
">. c #8A461D",
",. c #844B1D",
"<. c #8D4A1D",
"1. c #894A17",
"2. c #914E1E",
"3. c #8B511D",
"4. c #93541F",
"5. c #9A591D",
"6. c #B6451C",
"7. c #9F601E",
"8. c #874726",
"9. c #955321",
"0. c #9B5C21",
"q. c #945627",
"w. c #844834",
"e. c #914C34",
"r. c #88573A",
"t. c #995739",
"y. c #9E4324",
"u. c #A75939",
"i. c #A64E27",
"p. c #9F6122",
"a. c #93623D",
"s. c #A06222",
"d. c #D25A30",
"f. c #F86835",
"g. c #895F48",
"h. c #88634C",
"j. c #9C6744",
"k. c #846A59",
"l. c #956A55",
"z. c #95705D",
"x. c #A26D46",
"c. c #BD6645",
"v. c #BB6848",
"b. c #AD784B",
"n. c #B37D49",
"m. c #B6755E",
"M. c #887267",
"N. c #837571",
"B. c #877B78",
"V. c #997666",
"C. c #C66A47",
"Z. c #DB7550",
"A. c #E77C55",
"S. c #FB7E51",
"D. c #B3804E",
"F. c #BA8A5F",
"G. c #998479",
"H. c #A78577",
"J. c #B68B6E",
"K. c #EB815B",
"L. c #F7865D",
"P. c #CA866D",
"I. c #FE8C62",
"U. c #E5977C",
"Y. c #958B8A",
"T. c #9A8E8B",
"R. c #928684",
"E. c #99908E",
"W. c #9C9392",
"Q. c #8B8181",
"!. c #A68F87",
"~. c #A5938B",
"^. c #B29687",
"/. c #A49B9A",
"(. c #AA9C9A",
"). c #A49795",
"_. c #B49D95",
"`. c #A9A09E",
"'. c #B7A398",
"]. c #ABA3A2",
"[. c #ACA9A8",
"{. c #B2A4A3",
"}. c #B8ACA9",
"|. c #B8B1AF",
" X c #BAB5B3",
".X c #B8B5B2",
"XX c #C8A999",
"oX c #D4AA97",
"OX c #C7AFA5",
"+X c #CAB2A7",
"@X c #D4BBAB",
"#X c #D2B6A4",
"$X c #C6BAB8",
"%X c #DFBDB3",
"&X c #CAC2BE",
"*X c #D8C1B8",
"=X c #E0CBBC",
"-X c #CCC3C1",
";X c #D3C5C3",
":X c #D5CAC9",
">X c #D9CDCB",
",X c #D5CAC5",
"<X c #DED0CF",
"1X c #DDD4D2",
"2X c #DED9D5",
"3X c #E4DAD6",
"4X c #E6DCDA",
"5X c #E8DFDD",
"6X c #E9E1DE",
"7X c #E4E0DC",
"8X c #F1E3D9",
"9X c #EEEAE6",
"0X c #ECE4E1",
"qX c #F3EEEA",
"wX c #F1EAE4",
"eX c #F5F2ED",
"rX c #FAF5F1",
"tX c #FDFAF5",
"yX c #FCFBF6",
"uX c #FFFEFFFF",
/* pixels */
"uXuXuXuXuXuXuXuXuXuXuXuXuXuXuXuXuXuXuXuXuXuXuXuXuXuX                uXuXuXuXuXuXuXuXuXuXuXuXuXuXuXuXuXuXuXuXuXuXuXuXuXuXuXuXuXuX",
"uXuXuXuXuXuXuXuXuXuXuXuXuXuXuXuXuXuXuXuXuXuXuXuXuX+ > 9 i l l a 1 @ uXuXuXuXuXuXuXuXuXuXuXuXuXuXuXuXuXuXuXuXuXuXuXuXuXuXuXuXuXuX",
"uXuXuXuXuXuXuXuXuXuXuXuXuXuXuXuXuXuXuXuXuXuXuXuX  7 B | B.E.W.G.| F >   uXuXuXuXuXuXuXuXuXuXuXuXuXuXuXuXuXuXuXuXuXuXuXuXuXuXuXuX",
"uXuXuXuXuXuXuXuXuXuXuXuXuXuXuXuXuXuXuXuXuXuXuX@ 2 V g.J.OX>X4X*XJ.} b 1 + uXuXuXuXuXuXuXuXuXuXuXuXuXuXuXuXuXuXuXuXuXuXuXuXuXuXuX",
"uXuXuXuXuXuXuXuXuXuXuXuXuXuXuXuXuXuXuXuXuXuX. 6 J h.^.OX;X3XqX3X@XV.r.B <   uXuXuXuXuXuXuXuXuXuXuXuXuXuXuXuXuXuXuXuXuXuXuXuXuXuX",
"uXuXuXuXuXuXuXuXuXuXuXuXuXuXuXuXuXuXuXuXuX  . 7 P z.{.-X>X5XrX9X:X_.g.B <   uXuXuXuXuXuXuXuXuXuXuXuXuXuXuXuXuXuXuXuXuXuXuXuXuXuX",
"uXuXuXuXuXuXuXuXuXuXuXuXuXuXuXuXuXuXuXuXuX    + 9 $.{.;X>X5XqXwX:X).' @ .   uXuXuXuXuXuXuXuXuXuXuXuXuXuXuXuXuXuXuXuXuXuXuXuXuXuX",
"uXuXuXuXuXuXuXuXuXuXuXuXuXuXuXuXuXuXuXuXuX      O o.{.;X>X5XeXwX:XT.h       uXuXuXuXuXuXuXuXuXuXuXuXuXuXuXuXuXuXuXuXuXuXuXuXuXuX",
"uXuXuXuXuXuXuXuXuXuXuXuXuXuXuXuXuXuXuXuXuX      O o.{.;X>X5XqXqX:XW.h       uXuXuXuXuXuXuXuXuXuXuXuXuXuXuXuXuXuXuXuXuXuXuXuXuXuX",
"uXuXuXuXuXuXuXuXuXuXuXuXuXuXuXuXuXuXuXuXuX    + = Q B.{.-X4XqX3X].=.R + .   uXuXuXuXuXuXuXuXuXuXuXuXuXuXuXuXuXuXuXuXuXuXuXuXuXuX",
"uXuXuXuXuXuXuXuXuXuXuXuXuXuXuXuXuXuXuXuXuX  . 4 n t s *.{.<X4X|.+.a M b $   uXuXuXuXuXuXuXuXuXuXuXuXuXuXuXuXuXuXuXuXuXuXuXuXuXuX",
"uXuXuXuXuXuXuXuXuXuXuXuXuXuXuXuXuXuXuXuXuX    4 b < + R -.)./.N.f @ 6 6 $   uXuXuXuXuXuXuXuXuXuXuXuXuXuXuXuXuXuXuXuXuXuXuXuXuXuX",
"uXuXuXuXuXuXuXuXuXuXuXuXuXuXuXuXuXuXuXuXuX    . + 3 b M a p l s M 6 2 + .   uXuXuXuXuXuXuXuXuXuXuXuXuXuXuXuXuXuXuXuXuXuXuXuXuXuX",
"uXuXuXuXuXuXuXuXuXuXuXuXuXuXuXuXuXuXuXuXuX+ + > 1 n K m < > > 7 B K 6 > $ + X uXuXuXuXuXuXuXuXuXuXuXuXuXuXuXuXuXuXuXuXuXuXuXuXuX",
"uXuXuXuXuXuXuXuXuXuXuXuXuXuXuXuXuXuXuXuX. 3 m B J T ) T J H H T Y Y T H N b 1   uXuXuXuXuXuXuXuXuXuXuXuXuXuXuXuXuXuXuXuXuXuXuXuX",
"uXuXuXuXuXuXuXuXuXuXuXuXuXuXuXuXuXuXuX+ 1 n T :.8.>.>.<.>.>.>.>.>.>.8.>.) J r & + uXuXuXuXuXuXuXuXuXuXuXuXuXuXuXuXuXuXuXuXuXuXuX",
"uXuXuXuXuXuXuXuXuXuXuXuXuXuXuXuXuX  + 5 m L :.>.>.>.>.>.>.<.>.>.>.>.>.>.>.) K b 1 . uXuXuXuXuXuXuXuXuXuXuXuXuXuXuXuXuXuXuXuXuXuX",
"uXuXuXuXuXuXuXuXuXuXuXuXuXuXuXuXuX  + q L :.>.>.>.>.>.>.>.>.>.>.>.>.>.>.>.:.Y K 5 .   uXuXuXuXuXuXuXuXuXuXuXuXuXuXuXuXuXuXuXuXuX",
"uXuXuXuXuXuXuXuXuXuXuXuXuXuXuXuXuX  + b J [ >.>.>.>.>.>.>.>.>.>.>.>.>.>.>.>.Y K 5 O   uXuXuXuXuXuXuXuXuXuXuXuXuXuXuXuXuXuXuXuXuX",
"uXuXuXuXuXuXuXuXuXuXuXuXuXuXuXuXuX  X q K Y :.:.>.>.>.>.>.>.>.>.>.>.>.>.:.) ( S 5     uXuXuXuXuXuXuXuXuXuXuXuXuXuXuXuXuXuXuXuXuX",
"uXuXuXuXuXuXuXuXuXuXuXuXuX          X b K P U Y >.>.>.>.>.>.>.>.>.>.>.>.) P P S 6 .           uXuXuXuXuXuXuXuXuXuXuXuXuXuXuXuXuX",
"uXuXuXuXuXuXuXuXuXuXuXuX+ , 1 4 $ . X b K K K U ) :.:.) ) ) :.:.:.) :.) P K K S 5   X 1 4 1 @ uXuXuXuXuXuXuXuXuXuXuXuXuXuXuXuXuX",
"uXuXuXuXuXuXuXuXuXuXuX  2 B ( _ A $ X 6 K L K K P P P P U P P P P P P P K K P S 3 . 3 ^ _ P c @   uXuXuXuXuXuXuXuXuXuXuXuXuXuXuX",
"uXuXuXuXuXuXuXuXuXuXuX  2 J 8._ ^ q 3 r m S K K K K K K K K K K K K K K K S Z n 6 w v ( ,.:.Z $   uXuXuXuXuXuXuXuXuXuXuXuXuXuXuX",
"uXuXuXuXuXuXuXuXuXuXuX  1 S S 6 q ^ ^ w 1 r K P K K K K K K L L K L K L P S 6 & v ( A w r K m $   uXuXuXuXuXuXuXuXuXuXuXuXuXuXuX",
"uXuXuXuXuXuXuXuXuXuXuX  1 N M 1 4 A ^ v 4 w M m m m m m n m n M m M n n m M 6 4 C ( C & 3 C M +   uXuXuXuXuXuXuXuXuXuXuXuXuXuXuX",
"uXuXuXuXuXuXuXuXuXuXuX  1 N S N b 3 w A ^ v @ @ + + + + + + + + + + + + + 1 C ^ C 3 5 b V K b +   uXuXuXuXuXuXuXuXuXuXuXuXuXuXuX",
"uXuXuXuXuXuXuXuXuXuXuX  1 S P P N 4 3 ( 3.x   . @ 1 @ $ $ $ $ $ > @ 1 @ . . A 3.A 1 5 S U P m @   uXuXuXuXuXuXuXuXuXuXuXuXuXuXuX",
"uXuXuXuXuXuXuXuXuXuXuX  2 J ) P S m B ) ) 6 . 3 H J H K J H J H H J J B , . m >.U N N K U ) B @   uXuXuXuXuXuXuXuXuXuXuXuXuXuXuX",
"uXuXuXuXuXuXuXuXuXuX    5 T :.U S N B T Y n 2 Z <.2.2.9.2.2.2.2.2.2.2.:.v 2 B :.J N N K Y :.H >   uXuXuXuXuXuXuXuXuXuXuXuXuXuXuX",
"uXuXuXuXuXuXuXuXuX      5 T >.U N 4 4 H :.T J :.0.0.0.0.0.0.0.0.0.0.0.9._ J Y ) N , 5 S ) 8.H @       uXuXuXuXuXuXuXuXuXuXuXuXuX",
"uXuXuXuXuXuXuXuX@ $ +   , N H N r 1 4 S >.2.2.0.0.p.s.s.s.s.s.s.s.s.7.7.4.2.2.:.m 1 1 b B H N 5 , , @ + uXuXuXuXuXuXuXuXuXuXuXuX",
"uXuXuXuXuXuXuX. 6 B x . . @ @ @ 1 0 N T >.4.0.0.p.s.p.p.p.p.p.p.p.p.s.p.0.0.9.:.P N 5 @ @ $ 5 B J J B ,   uXuXuXuXuXuXuXuXuXuXuX",
"uXuXuXuXuXuX% - N Y B 1 X     X 1 N P ) <.0.s.s.p.p.p.p.p.p.p.p.p.p.p.p.s.s.9.>.~ K b $ .   , H >.>.U b - % uXuXuXuXuXuXuXuXuXuX",
"uXuXuXuXuXO d ' ] P H m 3 . + 0 N S P ) <.9.p.s.p.p.p.p.p.p.p.p.p.p.p.p.s.p.4.>.Y L S m 3 . @ N P T ! { ` e O uXuXuXuXuXuXuXuXuX",
"uXuXuXuX  # ` M.%.] ] ] M + $ m P P U ) >.9.0.s.p.s.p.p.p.p.p.p.p.p.s.p.0.9.2.>.Y P P L b + % D ] ] ] k.%.f     uXuXuXuXuXuXuXuX",
"uXuXuXuX  * #.).G.h.@.@.R + & m P ) :.:.>.>.2.9.0.s.s.s.0.s.s.s.s.7.s.0.9.<.<.>.:.:.U L q X - ' @.@.%.H.E.` O   uXuXuXuXuXuXuXuX",
"uXuXuXuXuX* O.B.=.' ' ' f o + m P :.>.<.>.>.>.4.0.0.0.0.0.0.0.0.0.0.0.5.4.>.:.>.>.>.Y J q + % R ' ' $.N.B. .O uXuXuXuXuXuXuXuXuX",
"uXuXuXuXuXuXi p u - e - *   + n P :.>.>.>.>.>.2.2.2.2.8.2.<.<.2.8.2.2.2.2.<.<.>.>.>.) L r X O % e - 8 i p e uXuXuXuXuXuXuXuXuXuX",
"uXuXuXuXuXuXuX        O . + 3 N P ) >.>.>.T J H H T :.<.:.>.>.>.>.:.J H H J Y :.>.>.[ J m , +             uXuXuXuXuXuXuXuXuXuXuX",
"uXuXuXuXuXuXuXuXuXuX    @ r N K P :.>.<.Y F , @ > c Y >.>.>.:.>.>.T z @ $ 2 Z :.<.>.Y K S m 0 +   uXuXuXuXuXuXuXuXuXuXuXuXuXuXuX",
"uXuXuXuXuXuXuXuXuXuXuX  , N K K P ) >.2.T 6 O 8 k { :.2.>.2.2.<.<.[ ' g : . c :.<.>.) H K K b +   uXuXuXuXuXuXuXuXuXuXuXuXuXuXuX",
"uXuXuXuXuXuXuXuXuXuXuX  @ N P K P ) >.>.U 7 * *.|.^.q.1.5.0.0.4.>.j._.[...o z :.<.>.Y K K K n +   uXuXuXuXuXuXuXuXuXuXuXuXuXuXuX",
"uXuXuXuXuXuXuXuXuXuXu p d b S [ 8.[ :.2.) 3 * *.|.^.q.1.5.7.7.5.1.t._.[...X c ,.<.) 8.8.~ N M d p uXuXuXuXuXuXuXuXuXuXuXuXuXuXuX",
"uXuXuXuXuXuXuXuXuXO  .N.#.e M u.c.e.( <.,.q O y j { ) 2.0.p.0.5.2.) ' g : . C 4.,.U u.C.q.0 s =.;.g   uXuXuXuXuXuXuXuXuXuXuXuXuX",
"uXuXuXuXuXuXuXuXuXO o.(.B.; b c.A.u.8.9.3.C < , , V r.x.b.D.n.b.j.} q @ , 5 I 5.q.8.u.K.t.1 l T.E.h   uXuXuXuXuXuXuXuXuXuXuXuXuX",
"uXuXuXuXuXuXuXuXuXO o.(.-.; 6 C.L.A.C.p.3.1._ G H | H.'.+X@X@XOX^.V.} H G _ 1.2.u.C.L.L.u.1 l Y.T.h   uXuXuXuXuXuXuXuXuXuXuXuXuX",
"uXuXuXuXuXuXuXuXuXO o.(.Y.o.Q t.C.K.A.v.a.a.b.b.j.l.N.Y./.].[.W.Q.M.l.x.b.n.a.a.C.K.A.c.w.W +.(.T.g   uXuXuXuXuXuXuXuXuXuXuXuXuX",
"uXuXuXuXuXuXuXuXuXO ..(.$X{.N.R ! d.K.m.!._.+X@XXX=.g p g k g g i W G.OX@X+X^.H.P.A.u.V ' R.}.$XY.g   uXuXuXuXuXuXuXuXuXuXuXuXuX",
"uXuXuXuXuXuXuXuXuXO W B.{.:X].+.X.m.oXoX|.%X1X6X1XY.h *         : ..].4X5X<X$X}.oXU.l.W *. X&X`.=.s   uXuXuXuXuXuXuXuXuXuXuXuXuX",
"uXuXuXuXuXuXuXuXuXuXe p *.{.$X].'.+X*X*X;X>X<X0X9X$XB.X.o     : +.T.:XqX5X<X:X;X%X%XOX`.}.$XW.O.i uXuXuXuXuXuXuXuXuXuXuXuXuXuXuX",
"uXuXuXuXuXuXuXuXuXuX    i =.`.;X4X5X5X7X4X3X4XqXrX>X!.$.V 7 7 E =._.1XrX9X4X3X4X4X5X5X3X-XW.+.-   uXuXuXuXuXuXuXuXuXuXuXuXuXuXuX",
"uXuXuXuXuXuXuXuXuXO     o 8 #.|.0XeXrXeXeXqXeXyXqX}.g.w.y.6.6.y.w.N.;XrXyXqXqXqXrXeXqX4X/. .; O     O uXuXuXuXuXuXuXuXuXuXuXuXuX",
"uXuXuXuXuXuXuXuXe p e 4 , > R B.[. X-X7XeXtXyXyXwX(.$.8.d.f.f.d.~ @.OXrXyXyXyXeX3X$X X(.=.t , , 4 i i y uXuXuXuXuXuXuXuXuXuXuXuX",
"uXuXuXuXuXuXuXo ..B.k.[ _ _ ] f h j +.].6XrXyXrX3XT.{ e.Z.S.S.C.w.$.{.0XyXyXrX2XT...j g R ^ _ _ | M.;.j   uXuXuXuXuXuXuXuXuXuXuX",
"uXuXuXuXuXuX  o #. XoXF.n.n.| 1     = *./.|..X|.).%.E w.Z.S.I.C.! Q N.`.|..X}.W...O     r a.n.D.P.*X`.`   uXuXuXuXuXuXuXuXuXuXuX",
"uXuXuXuXuXuX  # ;.2X8X*X#XXXM.e     O ; g k k h l 8 = ! Z.I.I.v.V = i g k j k l ;       h H.XX@X=X9X&Xo.O uXuXuXuXuXuXuXuXuXuXuX",
"uXuXuXuXuXuXuX* *.[..X`.W.E.*.i                     . V u.v.v.e.0                       k -.E./.[..X`...  uXuXuXuXuXuXuXuXuXuXuX",
"uXuXuXuXuXuXuXuXl k k h g s i uXuXuXuXuXuXuXuXuXuXuXuX9 0 t 0 0 uXuXuXuXuXuXuXuXuXuXuXuXe p p g k j j p uXuXuXuXuXuXuXuXuXuXuXuX",
"uXuXuXuXuXuXuXuXuXO           uXuXuXuXuXuXuXuXuXuXuXuXuX        uXuXuXuXuXuXuXuXuXuXuXuXuX            uXuXuXuXuXuXuXuXuXuXuXuXuX",
"uXuXuXuXuXuXuXuXuXuXuXuXuXuXuXuXuXuXuXuXuXuXuXuXuXuXuXuXuXuXuXuXuXuXuXuXuXuXuXuXuXuXuXuXuXuXuXuXuXuXuXuXuXuXuXuXuXuXuXuXuXuXuXuX",
"uXuXuXuXuXuXuXuXuXuXuXuXuXuXuXuXuXuXuXuXuXuXuXuXuXuXuXuXuXuXuXuXuXuXuXuXuXuXuXuXuXuXuXuXuXuXuXuXuXuXuXuXuXuXuXuXuXuXuXuXuXuXuXuX",
"uXuXuXuXuXuXuXuXuXuXuXuXuXuXuXuXuXuXuXuXuXuXuXuXuXuXuXuXuXuXuXuXuXuXuXuXuXuXuXuXuXuXuXuXuXuXuXuXuXuXuXuXuXuXuXuXuXuXuXuXuXuXuXuX",
"uXuXuXuXuXuXuXuXuXuXuXuXuXuXuXuXuXuXuXuXuXuXuXuXuXuXuXuXuXuXuXuXuXuXuXuXuXuXuXuXuXuXuXuXuXuXuXuXuXuXuXuXuXuXuXuXuXuXuXuXuXuXuXuX"
};
