/* XPM */
static char *result[] = {
/* columns rows colors chars-per-pixel */
"64 64 153 2 ",
"   c #020100",
".  c #0B0402",
"X  c #0C0B03",
"o  c #080B0C",
"O  c #120703",
"+  c #1A0703",
"@  c #140A04",
"#  c #1B0A02",
"$  c #1C1007",
"%  c #12130A",
"&  c #1F1009",
"*  c #0E1011",
"=  c #121315",
"-  c #1B1B11",
";  c #181A1B",
":  c #210D06",
">  c #251107",
",  c #2D1406",
"<  c #22130B",
"1  c #2A160C",
"2  c #2A190E",
"3  c #301707",
"4  c #331B0C",
"5  c #2D1A10",
"6  c #321D12",
"7  c #25291A",
"8  c #292B1C",
"9  c #352114",
"0  c #392316",
"q  c #3E2618",
"w  c #2D301F",
"e  c #242527",
"r  c #252728",
"t  c #292A2B",
"y  c #333523",
"u  c #3D3F2A",
"i  c #303437",
"p  c #373838",
"a  c #442618",
"s  c #442B1B",
"d  c #4A2D1E",
"f  c #512E1F",
"g  c #4D301F",
"h  c #53301F",
"j  c #4C3120",
"k  c #543522",
"l  c #593723",
"z  c #573827",
"x  c #5D3925",
"c  c #5D3C28",
"v  c #603C27",
"b  c #623E29",
"n  c #41422C",
"m  c #4B4B33",
"M  c #555439",
"N  c #65412B",
"B  c #6C432D",
"V  c #72452E",
"C  c #6B4630",
"Z  c #724631",
"A  c #744C33",
"S  c #7A4E34",
"D  c #7C5137",
"F  c #7F5238",
"G  c #3F4041",
"H  c #404345",
"J  c #4C4C4D",
"K  c #626144",
"L  c #6B6647",
"P  c #6E6E4D",
"I  c #76714F",
"U  c #7C7B55",
"Y  c #8C5F37",
"T  c #85553A",
"R  c #87583D",
"E  c #8C5B3E",
"W  c #956B2D",
"Q  c #9B7329",
"!  c #9A6B36",
"~  c #926539",
"^  c #A27B22",
"/  c #A1762C",
"(  c #875642",
")  c #915F41",
"_  c #966243",
"`  c #9B6545",
"'  c #9E6944",
"]  c #9C634F",
"[  c #9F6849",
"{  c #A46C4B",
"}  c #A96E4D",
"|  c #AC714F",
" . c #A16751",
".. c #A46952",
"X. c #AD6D59",
"o. c #AF7352",
"O. c #B27652",
"+. c #B77954",
"@. c #BA7B55",
"#. c #B5755B",
"$. c #B9775D",
"%. c #BD7D5A",
"&. c #C17F59",
"*. c #3F824F",
"=. c #B79C02",
"-. c #B5930C",
";. c #B68F1A",
":. c #AA8122",
">. c #C49E14",
",. c #C7A704",
"<. c #CDAB03",
"1. c #D5BD00",
"2. c #DBBB00",
"3. c #CEA419",
"4. c #E4BE03",
"5. c #E5C600",
"6. c #E7C900",
"7. c #F1D200",
"8. c #FBDA01",
"9. c #FFE202",
"0. c #FFEF00",
"q. c #BF8055",
"w. c #8B8860",
"e. c #938E64",
"r. c #9F9B6D",
"t. c #A59C6E",
"y. c #ACA373",
"u. c #B1AB79",
"i. c #C28157",
"p. c #C5835C",
"a. c #CA865E",
"s. c #CC885F",
"d. c #CD8A62",
"f. c #D38B61",
"g. c #BDB681",
"h. c #C4BB85",
"j. c #C8C188",
"k. c #D0C78D",
"l. c #D4C98F",
"z. c #D5CD91",
"x. c #DED194",
"c. c #E0D697",
"v. c #E9DB9B",
"b. c #EFE4A1",
"n. c #F4E6A3",
"m. c #F4E9A5",
"M. c #FDEDA7",
"N. c #F7EEA8",
"B. c #FEEEA9",
"V. c #FFF2AC",
"C. c #FFF8AF",
"Z. c #FFF7B0",
"A. c #FFFDB3",
/* pixels */
"*.*.*.*.*.*.*.*.*.*.*.*.*.*.*.*.*.*.*.*.*.*.*.*.*.*.*.*.*.*.*.*.*.*.*.*.*.*.*.*.*.*.*.*.*.*.*.*.*.*.*.*.*.*.*.*.*.*.*.*.*.*.*.*.",
"*.*.*.*.*.*.*.*.*.*.*.*.*.*.*.*.*.*.*.*.*.*.*.*.*.*.*.*.*.*.*.*.*.*.*.*.*.*.*.*.*.*.*.*.*.*.*.*.*.*.*.*.*.*.*.*.*.*.*.*.*.*.*.*.",
"*.*.*.*.*.*.*.*.*.*.*.*.*.*.*.*.*.*.*.*.*.*.*.*.*.*.*.*.*.*.*.*.*.*.*.*.*.*.*.*.*.*.*.*.*.*.*.*.*.*.*.*.*.*.*.*.*.*.*.*.*.*.*.*.",
"*.*.*.*.*.*.*.*.*.*.*.*.*.*.*.*.*.*.*.*.*.*.*.*.*.*.*.*.*.*.*.*.*.*.*.*.*.*.*.*.*.*.*.*.*.*.*.*.*.*.*.*.*.*.*.*.*.*.*.*.*.*.*.*.",
"*.*.*.*.*.*.*.*.*.*.*.*.*.*.*.*.*.*.*.*.*.*.*.*.*.*.*.*.*.*.  . .   *.*.*.*.*.*.*.*.*.*.*.*.*.*.*.*.*.*.*.*.*.*.*.*.*.*.*.*.*.*.",
"*.*.*.*.*.*.*.*.*.*.*.*.*.*.*.*.*.*.*.*.*.*.*.*.*.*.*.*.*   0 N b 0   * *.*.*.*.*.*.*.*.*.*.*.*.*.*.*.*.*.*.*.*.*.*.*.*.*.*.*.*.",
"*.*.*.*.*.*.*.*.*.*.*.*.*.*.*.*.*.*.*.*.*.*.*.*.*.*.*.  $ z N c c c z $   J *.*.*.*.*.*.*.*.*.*.*.*.*.*.*.*.*.*.*.*.*.*.*.*.*.*.",
"*.*.*.*.*.*.*.*.*.*.*.*.*.*.*.*.*.*.*.*.*.*.*.*.*.    s c b l < a b l N s     *.*.*.*.*.*.*.*.*.*.*.*.*.*.*.*.*.*.*.*.*.*.*.*.*.",
"*.*.*.*.*.*.*.*.*.*.*.*.*.*.*.*.*.*.*.*.*.*.*.p   < c v b s       < c x v c <   p *.*.*.*.*.*.*.*.*.*.*.*.*.*.*.*.*.*.*.*.*.*.*.",
"*.*.*.*.*.*.*.*.*.*.*.*.*.*.*.*.*.*.*.*.*.*.    g b x c 2   0 +.F     j v l b g     *.*.*.*.*.*.*.*.*.*.*.*.*.*.*.*.*.*.*.*.*.*.",
"*.*.*.*.*.*.*.*.*.*.*.*.*.*.*.*.*.*.*.*.r   5 N x b k     A p.@.p.| 6   5 c l x b 5   e *.*.*.*.*.*.*.*.*.*.*.*.*.*.*.*.*.*.*.*.",
"*.*.*.*.*.*.*.*.*.*.*.*.*.*.*.*.*.*.*.  . k c x b 9   < } a.O.@.@.%.p.C   . k b l b k .   *.*.*.*.*.*.*.*.*.*.*.*.*.*.*.*.*.*.*.",
"*.*.*.*.*.*.*.*.*.*.*.*.*.*.*.*.*.=   9 N x c k O   b i.%.@.@.@.@.@.@.p.{ >   9 b l x N 0   = *.*.*.*.*.*.*.*.*.*.*.*.*.*.*.*.*.",
"*.*.*.*.*.*.*.*.*.*.*.*.*.*.*.*.  @ z b l b a   @ ` p.@.+.@.@.@.@.@.@.O.&.%.x   @ l c k v z @   *.*.*.*.*.*.*.*.*.*.*.*.*.*.*.*.",
"*.*.*.*.*.*.*.*.*.*.*.*.*.*.o   a N x x x $   j @.p.+.@.@.@.@.@.@.@.@.@.+.@.p._ @   q N l x N a   o *.*.*.*.*.*.*.*.*.*.*.*.*.*.",
"*.*.*.*.*.*.*.*.*.*.*.*.G   & c v l b d     R a.@.+.@.@.@.@.@.@.@.@.@.@.@.&.@.p.%.j   # x c k v l &   G *.*.*.*.*.*.*.*.*.*.*.*.",
"*.*.*.*.*.*.*.*.*.*.*.    g N l x v 2   0 O.i.+.@.@.@.@.@.@.@.@.@.@.+.+.O.~ { @.@.a.R     d N l l N d     *.*.*.*.*.*.*.*.*.*.*.",
"*.*.*.*.*.*.*.*.*.t   2 b x k v k     S p.%.+.@.@.@.+.@.@.@.@.@.@.@.%.d.W 6.,...&.+.a.O.q   < v b k x b 2   t *.*.*.*.*.*.*.*.*.",
"*.*.*.*.*.*.*.*.    k N z l N 9   < } p.+.@.@.@.%.%.q.@.%.%.%.%.$.X.{ ( =.0.=.) &.+.+.%.p.D     d b l l N k .   *.*.*.*.*.*.*.*.",
"*.*.*.*.*.*.;   9 b x k v l O   N i.q.+.@.@.@.%.o.~ { o.X.{ ` ! ^ -.,.2.8.8.5.W @.@.@.@.@.p.| 2   < x b z l b 9   ; *.*.*.*.*.*.",
"*.*.*.*.*.  O z b k x N q   @ _ a.+.+.@.@.@.@.$.Q 6.,.:.-.<.2.4.2.,.;./ Q 3.4.Q O.@.@.@.@.@.%.p.C     a b l k b z O   *.*.*.*.*.",
"*.*.*.o   q N l k b l @   g %.i.+.@.@.@.@.@.@.$.Q 7.8.8.5.>.:.! _ ] ..$.O._ E } @.@.@.@.@.@.+.+.p.[ <   # l N l l N q   o *.*.*.",
"*.*.  & c v k x b 0     R a.@.+.@.@.@.@.@.@.@.i.~ 1.9.^ (  .o.@.&.&.&.@.@.&.&.&.@.@.@.@.@.@.@.@.+.i.%.c     0 c x l b x &   *.*.",
"*.  0 N l l v k @   0 O.p.+.@.%.%.+.&.@.@.@.@.%.{ ,.>.Y p.&.@.+.@.@.@.@.@.@.+.@.@.@.@.@.@.%.+.%.q.+.@.a._ @   @ k b l l N 9   *.",
"*.  k l x b 6     S p.%.+.+.%.} | i.' O.@.@.@.@.@._ _ $.@.@.@.@.@.@.@.@.@.@.@.@.@.@.@.@.O.{ i.| } %.+.+.i.@.j     5 b v x k   *.",
"*.t . N g     @ } p.+.@.@.p.|   1 T   s s.@.@.@.@.i.i.@.@.@.@.@.@.@.@.@.@.@.@.@.@.@.&.p.6   E O . +.p.@.@.@.a.T       d N O r *.",
"*.*.      J i 0 s.O.@.@.+._ _   . d   q ` { i.@.@.@.@.@.@.@.@.@.@.@.@.@.@.@.@.@.@.@.` [ 2   k   . _ ` @.@.@.+.s.> H J       *.*.",
"*.*.*.*.*.*.*., a.+.@.p.T   # N A [ l k   # @.@.@.@.@.@.@.@.@.@.@.@.@.@.@.@.@.+.%.O.    v c } N c .   _ &.+.+.p.# *.*.*.*.*.*.*.",
"*.*.*.*.*.*.*.3 a.@.+.i.`     ) q O D l   9 @.@.@.@.+.+.@.@.%.&.&.&.@.@.+.@.@.@.@.@.<   S N . k T     } %.@.@.a.# *.*.*.*.*.*.*.",
"*.*.*.*.*.*.*.3 a.+.@.@.i.` ` 5       Z F | %.@.+.@.p.a.p.+.} ` ` { @.a.a.p.@.O.@.%.| _ c       s R _ i.+.@.+.p.# *.*.*.*.*.*.*.",
"*.*.*.*.*.*.*.4 a.+.@.@.+.i.%.O       b f.@.+.@.a.%.T a # . . X X   O + a T &.a.@.+.@.f.s       1 a.&.@.@.@.@.a.# *.*.*.*.*.*.*.",
"*.*.*.*.*.*.*., a.+.@.@.@.+.&.g < s @ ) %.+.a.O.h   % M e.h.x.v.v.c.u.e.M X   l +.a.O.&.D @ g @ N &.+.@.@.@.+.p.# *.*.*.*.*.*.*.",
"*.*.*.*.*.*.*.3 a.@.@.@.@.@.@.@.q.p.%.+.q.a.B   w y.N.C.C.C.C.B.B.V.V.A.A.n.t.7   Z a.@.@.q.p.%.%.@.@.@.@.@.+.a.# *.*.*.*.*.*.*.",
"*.*.*.*.*.*.*.3 a.O.@.@.@.@.@.@.@.+.+.p.O.$ X y.C.C.M.M.m.M.M.M.M.M.M.M.m.M.A.C.t.  1 +.q.+.+.+.@.@.@.@.@.@.@.p.# *.*.*.*.*.*.*.",
"*.*.*.*.*.*.*.3 a.@.@.@.@.@.@.@.@.+.i.{   m m.C.N.M.M.M.M.M.M.M.M.M.M.M.M.M.M.M.A.b.u   o.i.+.%.@.@.@.@.@.@.@.a.# *.*.*.*.*.*.*.",
"*.*.*.*.*.*.*.3 a.+.@.@.@.@.@.@.+.i.{   I A.M.n.M.M.M.M.M.M.B.M.M.M.M.M.M.M.M.M.M.B.A.L   } i.+.@.@.@.@.@.@.+.p.# *.*.*.*.*.*.*.",
"*.*.*.*.*.*.*.3 a.+.@.@.@.@.@.@.%.O.  I A.M.M.M.M.M.M.M.M.M.M.M.M.M.M.M.M.M.M.M.M.M.M.A.L . +.q.@.@.@.@.@.@.@.p.# *.*.*.*.*.*.*.",
"*.*.*.*.*.*.*.3 a.@.@.@.@.@.@.@.i.< M A.M.M.M.M.M.M.M.M.M.B.M.M.M.M.M.M.M.M.M.M.M.M.M.M.A.m , p.+.@.@.@.@.@.@.p.# *.*.*.*.*.*.*.",
"*.*.*.*.*.*.*.3 a.+.@.@.@.@.O.a.b - N.B.M.M.B.M.M.M.M.M.M.M.M.M.M.M.M.M.M.M.M.M.M.M.M.M.B.m.- B a.+.@.@.@.@.+.p.# *.*.*.*.*.*.*.",
"*.*.*.*.*.*.*.3 a.+.@.@.@.@.&.|   g.C.M.M.M.M.M.M.M.M.M.M.M.M.M.M.M.M.M.M.M.M.M.M.M.M.M.m.A.u.  O.@.@.@.@.@.@.p.# *.*.*.*.*.*.*.",
"*.*.*.*.*.*.*.3 a.+.@.@.@.+.a.a M A.n.M.M.M.M.M.M.M.M.M.M.M.B.M.M.B.M.M.M.M.M.M.M.M.M.M.M.m.C.m j d.O.#.q.#.q.q.# *.*.*.*.*.*.*.",
"*.*.*.*.*.*.*.3 a.+.@.@.@.q.O.  j.V.M.M.M.M.M.M.M.B.M.M.B.M.M.M.M.M.M.M.M.M.M.B.M.M.M.M.M.M.C.u.  O.q.q.#.q.$.d.# *.*.*.*.*.*.*.",
"*.*.*.*.*.*.*.3 a.+.@.@.+.d.b y C.M.M.M.M.M.M.M.M.M.M.M.M.M.M.M.M.M.M.B.B.M.M.M.M.M.M.B.M.M.M.C.8 Z d.O.q.O.q.q.# *.*.*.*.*.*.*.",
"*.*.*.*.*.*.*.3 a.+.@.@.+.p.: w.A.M.M.M.M.M.M.M.M.M.M.M.M.M.M.M.B.M.M.M.M.M.M.M.M.M.M.M.M.M.m.C.U 2 q.q.#.q.q.q.# *.*.*.*.*.*.*.",
"*.*.*.*.*.*.*.3 a.@.@.@.%.| . k.V.M.B.M.M.B.M.M.M.M.M.M.M.M.M.M.M.M.M.M.M.M.M.B.M.M.B.M.M.M.M.C.h.. +.%.q.q.#.d.# *.*.*.*.*.*.*.",
"*.*.*.*.*.*.*.3 a.+.@.+.i.E - N.B.M.M.M.M.M.M.M.M.M.M.B.M.B.M.M.M.M.M.B.B.M.M.M.B.M.M.M.M.M.M.M.b.% _ i.O.O.O.q.# *.*.*.*.*.*.*.",
"*.*.*.*.*.*.*.3 a.+.@.+.a.B y C.M.M.M.M.M.M.M.B.M.M.M.M.M.M.M.M.M.M.M.M.M.M.M.M.M.M.M.M.M.M.M.M.V.8 S p.O.q.q.a.# K *.*.*.*.*.*.",
"*.*.*.*.*.*.*.3 a.+.@.@.s.h M C.M.M.M.M.B.M.M.M.M.M.B.M.M.M.M.B.M.B.M.M.M.M.B.M.M.M.M.M.M.M.B.M.A.n v a.q.O.q.q.% *.*.*.*.*.*.*.",
"*.*.*.*.*.*.*.3 d.O.@.+.d.a K A.n.M.M.M.M.M.M.M.M.M.M.M.M.M.M.M.M.M.M.B.M.M.M.M.M.M.M.M.M.M.M.M.A.M k d.+.@.+.a.# *.*.*.*.*.*.*.",
"*.*.*.*.*.*.*.3 a.@.@.+.a.a K A.M.M.M.M.M.M.M.M.M.M.M.B.B.M.M.M.M.M.M.M.M.B.M.M.M.M.M.M.M.M.M.n.A.M f a.+.@.+.p.# *.*.*.*.*.*.*.",
"*.*.*.*.*.*.*.3 a.+.@.+.d.h M A.m.M.M.M.M.M.M.M.M.B.M.M.M.M.M.M.B.M.M.M.M.M.B.M.M.M.M.M.M.M.M.M.A.m l a.+.@.+.d.# *.*.*.*.*.*.*.",
"*.*.*.*.*.*.*.3 a.+.@.+.a.b u A.M.M.M.M.M.M.M.M.M.M.M.M.M.M.B.M.M.M.M.M.B.M.M.M.M.M.M.M.M.M.M.M.V.y V a.+.@.+.p.# *.*.*.*.*.*.*.",
"*.*.*.*.*.*.*.3 d.+.@.@.p.T 2 V.M.M.M.M.M.M.M.M.M.M.M.M.B.M.M.M.M.M.M.M.M.B.M.M.M.M.M.M.M.M.M.V.M.- E p.@.@.@.p.# *.*.*.*.*.*.*.",
"*.*.*.*.*.*.*.3 p.+.@.@.%.} X x.B.M.M.M.B.M.M.M.B.M.M.M.M.M.B.M.M.M.M.B.M.M.M.M.M.M.M.M.M.M.M.V.l.  o.@.@.@.@.p.# *.*.*.*.*.*.*.",
"*.*.*.*.*.*.*.3 d.+.@.@.@.i.@ r.A.M.M.M.M.M.M.M.M.M.M.M.M.M.M.M.M.M.M.M.M.M.M.M.M.M.M.M.M.M.m.A.e.: p.@.@.@.+.a.# *.*.*.*.*.*.*.",
"*.*.*.*.*.*.*.3 a.+.@.@.+.a.d m A.M.M.M.M.M.M.B.M.M.B.M.M.B.M.M.M.M.M.M.B.M.M.M.B.M.M.M.M.M.M.Z.u x a.@.@.@.+.p.# *.*.*.*.*.*.*.",
"*.*.*.*.*.*.*.3 a.+.@.@.@.&.` . x.A.M.M.M.M.M.M.M.M.M.M.M.M.M.M.M.B.M.M.M.M.M.M.B.M.M.M.M.N.C.z.  { %.@.@.@.+.a.# *.*.*.*.*.*.*.",
"*.*.*.*.*.*.*.3 d.+.@.@.@.@.a.1 P A.M.M.M.M.M.M.M.M.M.M.M.M.M.M.M.M.M.M.B.M.B.M.B.N.B.M.M.M.A.K 6 a.+.@.@.@.@.p.# *.*.*.*.*.*.*.",
"*.*.*.*.*.*.*.4 d.%.%.&.&.%.p.` X x.V.B.B.V.B.V.V.V.V.B.V.B.V.V.B.V.V.V.V.V.B.V.C.N.N.C.M.C.l.X { a.%.%.%.%.%.d.: *.*.*.*.*.*.*.",
"*.*.*.*.*.*.*.                      @ X X X X X X X X X X X X X X X X X X X X X X X X o X X     .   .         .   *.*.*.*.*.*.*.",
"*.*.*.*.*.*.*.*.*.*.*.*.*.*.*.*.*.*.*.*.*.*.*.*.*.*.*.*.*.*.*.*.*.*.*.*.*.*.*.*.*.*.*.*.*.*.*.*.K *.*.*.*.*.*.*.*.*.*.*.*.*.*.*.",
"*.*.*.*.*.*.*.*.*.*.*.*.*.*.*.*.*.*.*.*.*.*.*.*.*.*.*.*.*.*.*.*.*.*.*.*.*.*.*.*.*.*.*.*.*.*.*.*.*.*.*.*.*.*.*.*.*.*.*.*.*.*.*.*.",
"*.*.*.*.*.*.*.*.*.*.*.*.*.*.*.*.*.*.*.*.*.*.*.*.*.*.*.*.*.*.*.*.*.*.*.*.*.*.*.*.*.*.*.*.*.*.*.*.*.*.*.*.*.*.*.*.*.*.*.*.*.*.*.*.",
"*.*.*.*.*.*.*.*.*.*.*.*.*.*.*.*.*.*.*.*.*.*.*.*.*.*.*.*.*.*.*.*.*.*.*.*.*.*.*.*.*.*.*.*.*.*.*.*.*.*.*.*.*.*.*.*.*.*.*.*.*.*.*.*."
};
