/* XPM */
static char *result[] = {
/* columns rows colors chars-per-pixel */
"6 6 2 1 ",
"w  c #39650F",
"l  c #FFFFFF",
/* pixels */
"llllll",
"lwwwwl",
"lwwwwl",
"lwwwwl",
"lwwwwl",
"llllll"
};
