/* XPM */
static char *result[] = {
/* columns rows colors chars-per-pixel */
"64 64 167 2 ",
"   c #6E3C0B",
".  c #7D2B1A",
"X  c #39650F",
"o  c #306B0E",
"O  c #3D6913",
"+  c #367114",
"@  c #387D16",
"#  c #397916",
"$  c #5B480C",
"%  c #5D520F",
"&  c #68410C",
"*  c #764411",
"=  c #7A4614",
"-  c #7A4E18",
";  c #7A4D17",
":  c #755117",
">  c #446818",
",  c #43781B",
"<  c #625F28",
"1  c #547726",
"2  c #636E2E",
"3  c #756B21",
"4  c #727D26",
"5  c #6B6832",
"6  c #6A6431",
"7  c #8E0E2B",
"8  c #950332",
"9  c #990436",
"0  c #9D0439",
"q  c #A2043D",
"w  c #A4083F",
"e  c #8E2727",
"r  c #872B21",
"t  c #844D1A",
"y  c #82531C",
"u  c #89521E",
"i  c #8D5421",
"p  c #945A25",
"a  c #995E29",
"s  c #935926",
"d  c #9E622D",
"f  c #A1642F",
"g  c #A46631",
"h  c #A76934",
"j  c #A96A35",
"k  c #AF6F3A",
"l  c #B1713C",
"z  c #A70541",
"x  c #AB0544",
"c  c #AF0748",
"v  c #AE0948",
"b  c #B4054B",
"n  c #B2094B",
"m  c #B9074D",
"M  c #BE0252",
"N  c #BA0C51",
"B  c #B70D50",
"V  c #BC1255",
"C  c #C40256",
"Z  c #C70259",
"A  c #C8045A",
"S  c #CB0A5E",
"D  c #C6195D",
"F  c #C5195D",
"G  c #CC0E60",
"H  c #CE1163",
"J  c #C91C61",
"K  c #D11565",
"L  c #D41C69",
"P  c #CF2266",
"I  c #D02267",
"U  c #D5246B",
"Y  c #D9246E",
"T  c #DA2770",
"R  c #DD2C73",
"E  c #D52974",
"W  c #DF3176",
"Q  c #DC347B",
"!  c #DB3A7F",
"~  c #E03277",
"^  c #E23478",
"/  c #E6397B",
"(  c #EA3D7C",
")  c #9D5B4F",
"_  c #AD4A4E",
"`  c #AA5957",
"'  c #B2555B",
"]  c #B67541",
"[  c #BB7945",
"{  c #BC7A46",
"}  c #C17E4A",
"|  c #C04F62",
" . c #DC4F74",
".. c #EE417E",
"X. c #F0437F",
"o. c #3C8619",
"O. c #3D8B1B",
"+. c #3E911C",
"@. c #42861D",
"#. c #52801B",
"$. c #41931E",
"%. c #419A1F",
"&. c #488F22",
"*. c #439720",
"=. c #469E23",
"-. c #46A223",
";. c #C6824E",
":. c #CC8753",
">. c #CF8A57",
",. c #DB3E82",
"<. c #DD4587",
"1. c #E04D8C",
"2. c #E74888",
"3. c #F14580",
"4. c #F64B83",
"5. c #E8558E",
"6. c #EA588F",
"7. c #F65186",
"8. c #F75589",
"9. c #F7598C",
"0. c #F85C8E",
"q. c #EF5994",
"w. c #F05C96",
"e. c #F85F90",
"r. c #ED6196",
"t. c #E8649D",
"y. c #F86393",
"u. c #F96997",
"i. c #F2649A",
"p. c #F36B9E",
"a. c #F96C99",
"s. c #FA729D",
"d. c #EB6CA2",
"f. c #F56FA0",
"g. c #EF79AB",
"h. c #F673A2",
"j. c #FA77A0",
"k. c #F779A6",
"l. c #F97BA5",
"z. c #F17DAE",
"x. c #F97FA9",
"c. c #FB81A7",
"v. c #FA83AA",
"b. c #FC8DAF",
"n. c #F386B4",
"m. c #FA87B0",
"M. c #FB8DB2",
"N. c #FC93B3",
"B. c #FC93BA",
"V. c #FD9CBC",
"C. c #FD98B7",
"Z. c #FDA1BE",
"A. c #FC9CC2",
"S. c #F997C0",
"D. c #FEA3C4",
"F. c #FEAAC5",
"G. c #FEA6C9",
"H. c #FFAACC",
"J. c #FFB4CD",
"K. c #FFAED0",
"L. c #FFB4D4",
"P. c #FFB9D2",
"I. c #FFBBDA",
"U. c #FFC1DE",
"Y. c #FFC6E2",
"T. c #FFC8E4",
"R. c #3F824F",
/* pixels */
"R.R.R.R.R.R.R.R.R.R.R.R.R.R.R.R.R.R.R.R.R.R.R.R.R.R.R.R.R.R.R.R.R.R.R.R.R.R.R.R.R.R.R.R.R.R.R.R.R.R.R.R.R.R.R.R.R.R.R.R.R.R.R.R.",
"R.R.R.R.R.R.R.R.R.R.R.R.R.R.R.R.R.R.R.R.R.R.R.R.R.R.R.R.R.R.R.R.R.R.R.R.R.R.R.R.R.R.R.R.R.R.R.R.R.R.R.R.R.R.R.R.R.R.R.R.R.R.R.R.",
"R.R.R.R.R.R.R.R.R.R.R.R.R.R.R.R.R.R.R.R.R.R.R.R.R.R.R.R.R.R.R.R.R.R.R.R.R.R.b.R.R.R.R.R.R.R.R.R.R.R.R.R.R.R.R.R.R.R.R.R.R.R.R.R.",
"R.R.R.R.R.R.R.R.R.R.R.R.R.R.R.R.R.R.R.R.R.R.R.R.R.R.R.R.R.R.R.R.R.b.b.b.b.N.C.N.R.R.b.b.N.R.N.R.R.R.R.R.R.R.R.R.R.R.R.R.R.R.R.R.",
"R.R.R.R.R.R.R.R.R.R.R.R.R.R.R.R.R.R.R.R.R.R.R.R.R.4.4.4.4.8.v.b.b.N.C.N.M.N.F.D.b.b.Z.Z.N.b.b.b.R.R.R.R.R.R.R.R.R.R.R.R.R.R.R.R.",
"R.R.R.R.R.R.R.R.R.R.R.R.R.R.R.R.R.R.R.R.R.R.R.R.4.4.4.4.4.4.j.b.Z.J.J.J.J.Z.V.N.N.b.Z.U.Z.b.b.b.b.b.b.b.R.R.R.R.R.R.R.R.R.R.R.R.",
"R.R.R.R.R.R.R.R.R.R.R.R.R.R.R.R.R.R.R.R.R.R.R.R.4.4.4.4.4.4.8.a.b.F.J.J.J.J.F.b.C.b.b.C.C.b.b.b.b.b.b.b.R.R.R.R.R.R.R.R.R.R.R.R.",
"R.R.R.R.R.R.R.R.R.R.R.R.R.R.R.R.R.R.R.R.R.( 4.4.4.4.4.4.4.4.4.4.u.b.N.C.C.N.b.C.Z.Z.Z.C.N.Z.C.b.N.b.b.b.b.R.R.R.R.R.R.R.R.R.R.R.",
"R.R.R.R.R.R.R.R.R.R.R.R.R.R.R.R.R.R.R.R.~ ~ ( 4.4.4.4.4.4.4.4.4.u.c.v.c.c.b.Z.J.P.P.P.Z.Z.U.Z.b.b.b.b.b.b.b.b.R.R.R.R.R.R.R.R.R.",
"R.R.R.R.R.R.R.R.R.R.R.R.R.R.R.R.R.R.R.R.~ ~ ~ / ( ....4.4.4.4.4.4.7.7.y.c.C.P.P.P.J.Z.b.Z.U.J.C.b.b.N.b.b.b.b.b.R.R.R.R.R.R.R.R.",
"R.R.R.R.R.R.R.R.R.R.R.R.R.R.R.R.R.R.R.~ ~ ~ ~ ~ ^ ..4.4.4.4.4.4.4.4.0.b.b.N.F.F.Z.C.v.b.J.U.J.Z.b.b.b.b.N.b.b.b.b.R.R.R.R.R.R.R.",
"R.R.R.R.R.R.R.R.R.R.R.R.R.R.R.R.~ ~ ~ W ~ ~ ~ ~ / 4.4.4.4.4.4.4.4.4.y.b.b.b.N.b.b.c.u.v.Z.U.P.Z.b.b.b.b.b.b.b.b.R.R.R.R.R.R.R.R.",
"R.R.R.R.R.R.R.R.R.R.R.R.R.R.R.U R ~ ~ W ~ ~ ~ ~ ^ ( 3.3.X.X.4.4.4.X.7.s.v.b.b.v.s.0.e.b.Z.Z.J.N.v.b.b.b.l.c.v.b.s.7.R.R.R.R.R.R.",
"R.R.R.R.R.R.R.R.R.R.R.R.R.R.R.A S K K K L R ~ ~ ~ ~ ^ ~ / 3.7.y.s.s.y.4.8.0.y.8.8.X.y.b.b.N.b.b.s.c.b.b.l.8.8.8.4.4.4.4.R.R.R.R.",
"R.R.R.R.R.R.R.R.R.R.R.R.R.R.R.R.A Z Z G Y ~ ~ ~ ~ ~ ~ ( 4.9.v.M.b.b.u.4.4.4.8.s.c.y.X.s.b.b.b.c.8.s.b.b.b.u.4.4.4.4.7.4.R.R.R.R.",
"R.R.R.R.R.R.R.R.R.R.R.R.R.R.R.R.R.R.A L ~ R U R ^ ~ / 4.4.u.b.v.s.y.4.4.4.y.v.b.b.s.X.9.y.a.u.8.4.0.b.b.M.s.4.4.4.4.R.R.R.R.R.R.",
"R.R.R.R.R.R.R.R.R.R.R.R.R.R.R.R.R.Z C Z G Z A R W ^ 3.4.4.7.9.8.X.X.X.X.u.b.b.b.b.y.X.4.8.X.4.4.4.4.e.s.l.8.4.4.4.4.4.R.R.R.R.R.",
"R.R.R.R.R.R.R.R.R.R.R.R.R.R.R.R.,.Q G G ,.,.Z L W ^ W ( ( 3.3.3.X.X.X.0.b.b.b.b.c.7.7.0.s.8.4.4.4.4.4.7.4.4.4.4.4.4.4.4.R.R.R.R.",
"R.R.R.R.R.R.R.R.R.R.R.R.R.R.R.L S.G.z.g.A.S.L Z H U E Q W ~ ~ ~ X.X.X.s.b.b.b.b.y.X.4.a.b.e.X.4.4.4.4.4.4.4.4.4.4.4.4.4.R.R.R.R.",
"R.R.R.R.R.R.R.R.R.R.R.R.R.R.n.d.S.I.I.K.L.G.n.<.<.d.<.K U W R R /  .X.e.b.b.b.c.7.X.4.s.b.y.4.4.4.4.4.4.4.4.4.4.4.4.4.R.R.R.R.R.",
"R.R.R.R.R.R.R.R.R.R.R.R.K.L.U.U.U.Y.Y.Y.U.K.H.G.H.K.H.1.A K G R / X.X.X.u.u.0.X.X.8.8.c.b.0.4.4.4.4.4.4.4.4.4.4.4.4.4.4.R.R.R.R.",
"R.R.R.R.R.R.R.R.R.R.A.K.H.K.U.Y.T.T.T.T.T.Y.L.K.H.H.H.w.Z Z A T ^ X.9.X.X.X.X.X.7.X.X.b.s.7.4.4.4.4.4.4.4.4.4.4.4.4.4.4.4.R.R.R.",
"R.R.R.R.R.R.R.R.R.x.M.A.H.H.I.Y.T.T.T.T.Y.Y.Y.K.H.H.H.n.E C Z L ~ ~ X.X.X.X.9.X.X.X.7.y.8.4.4.4.4.4.4.4.4.4.4.4.4.4.4.4.4.R.R.R.",
"R.R.R.R.R.R.R.R.R.x.x.B.G.H.U.T.U.U.T.T.K.I.L.H.H.H.H.H.g.G A G ~ ~ ~ ~ X.X.X.X.9.8.X.X.4.4.4.4.4.4.4.4.4.4.4.4.4.4.4.4.4.R.R.R.",
"R.R.R.R.R.R.R.x.v.x.m.G.H.H.K.K.K.I.Y.U.H.H.H.H.G.H.H.H.G.n.d.E K L T ^ X.X.X.X...4.4.4.4.4.7.4.4.X.4.4.4.3...4.4.4.4.4.R.R.R.R.",
"R.R.R.R.R.R.x.x.x.x.B.H.H.K.H.I.K.K.K.K.H.H.H.H.H.H.G.H.H.H.B.f.G C U ^ ^ ( ( ( X.4.4.4.4.4.X.4.4...4.4.4...^ ..4.4.4.4.R.R.R.R.",
"R.R.R.R.R.R.x.x.x.x.v.B.B.S.L.T.I.H.H.I.K.H.H.H.H.H.H.H.A.B.m.r.S C L ~ ^ R ^ ^ 4.4.4.4.4.X...4.4.( / ..3./ ^ ^ ( ..X.X...R.R.R.",
"R.R.R.R.R.R.R.x.x.v.B.B.x.B.I.T.I.H.H.I.K.H.H.H.A.G.H.H.B.x.x.5.S C H ^ ^ ^ ^ ^ X.7.4.4.4./ / X.3./ ^ W ^ ^ W W ^ ^ ^ ^ W R.R.R.",
"R.R.R.R.R.R.R.x.v.A.H.A.v.M.G.L.G.A.H.K.H.G.H.H.S.A.K.H.B.x.x.x./ Z S R ^ ^ ^ ~ / X.X.../ ^ W ^ ^ ^ W W ^ W W ^ ~ ~ ~ ~ W R.R.R.",
"R.R.R.R.R.R.x.l.M.H.K.B.x.x.m.m.n.A.H.H.A.M.S.S.m.B.G.A.m.x.x.x.r.S A Y R R ~ ~ W ^ / ^ ^ W ^ W W W W ^ W ^ ^ W ~ ~ ~ ~ ^ R.R.R.",
"R.R.R.R.R.f.h.p.m.A.A.m.x.x.x.x.x.M.G.G.B.x.x.x.x.x.x.x.x.x.x.x.j.U C A G L ~ ~ W ^ ^ W W ^ W ^ ^ W ^ W W W W ^ ~ ~ W R.R.R.R.R.",
"R.R.R.R.R.w.w.q.i.h.x.x.x.x.x.x.x.x.v.v.x.x.x.x.x.x.x.x.x.x.x.x.p.H Z Z Z L ~ ~ ^ W W W ^ W W ^ W W ^ W ^ R W W ^ W ^ R.R.R.R.R.",
"R.R.R.R.R.R.q.q.w.f.x.x.x.h.k.x.x.x.m.x.x.x.x.x.x.v.x.x.x.x.v.v.5.S Z Z A K ~ ~ R L W ~ ~ ~ T L ~ ~ ~ ~ R H K R R ~ R R.R.R.R.R.",
"R.R.R.R.R.R.R.R.i.x.x.x.f.w.x.x.x.B.A.m.x.x.x.x.x.x.x.x.x.x.k.h.r.W Z A C S Y W L A L ~ ~ W K A K Y L L G A A A S H K R.R.R.R.R.",
"R.R.R.R.R.R.R.q.w.i.p.i.q.w.l.x.x.B.H.m.x.x.x.x.x.x.x.x.x.v.h.q.w.2.A A Z Z A S A Z A K L K Z Z Z Z A Z C A A A Z C R.R.R.R.R.R.",
"R.R.R.R.R.R.R.q.q.q.q.q.q.q.i.i.f.M.H.m.x.k.k.x.x.k.k.x.x.x.h.q.q.,.A C Z A A A Z Z Z Z Z A Z Z Z Z Z Z x q z z q q R.R.R.R.R.R.",
"R.R.R.R.R.R.R.R.q.R.R.q.q.q.q.q.f.v.m.x.x.k.i.k.v.h.i.h.x.k.i.q.2.L Z C C A A A A C A A b z b M C C C C q 8 0 v n x R.R.R.R.R.R.",
"R.R.R.R.R.R.R.R.R.R.R.q.q.q.q.q.f.x.x.x.x.h.w.i.f.w.q.q.r.w.w.^ H Z A n e m A Z A C A Z x 8 8 9 9 q q q q V P I P F R.R.R.R.R.R.",
"R.R.R.R.R.R.R.R.R.R.R.q.q.q.q.q.p.x.x.x.x.f.q.q.q.q.q.q.q.q.q.R.C A C r & r m Z A A A m 9 8 0 z q 9 q c D U U U U J n R.R.R.R.R.",
"R.R.R.R.R.R.R.R.R.R.R.R.q.R.R.q.q.i.f.f.p.q.q.q.q.q.q.q.q.q.q.R.R.R.r = p * r R.M m x 9 8 8 v n n n n n V I U U U P B R.R.R.R.R.",
"R.R.R.R.R.R.R.R.R.R.R.R.R.R.R.q.q.q.q.q.q.q.q.q.q.q.q.q.w.w.w.R.R.R.  i j u R.R.9 9 8 8 8 8 x n n n n n V P U U U P B R.R.R.R.R.",
"R.R.R.R.R.R.R.R.R.R.R.R.R.R.R.R.q.q.q.q.q.q.q.R.R.q.q.6.| _ R.R.R.R.* a f i R.R.8 8 8 8 8 8 0 x z v n n n B F U P V n R.R.R.R.R.",
"R.R.R.R.R.R.R.R.R.R.R.R.R.R.R.R.R.R.q.q.q.q.R.R.R.R.R.R.R.u t R.R.  u j p u R.R.R.8 8 8 8 8 8 8 9 c n n n v n F V n R.R.R.R.R.R.",
"R.R.R.R.R.R.R.R.R.R.R.R.R.R.R.R.R.R.R.R.R.R.R.R.R.R.R.R.R.R.g g a i h k s u R.R.R.R.7 8 8 8 8 8 8 q v v z 0 x v v v R.R.R.R.R.R.",
"R.R.R.R.4.R.R.R.R.R.R.R.R.R.R.R.R.R.R.R.R.R.R.R.R.R.R.R.R.R.R.k [ l k l a t R.R.R.R.. 8 8 8 8 8 8 8 9 9 9 8 8 9 9 9 R.R.R.R.R.R.",
"R.R.R.4.4.R.R.R.R.R.R.R.R.R.R.H.R.R.R.R.R.R.R.R.R.R.R.R.R.R.R.R.f l ] [ a u   R.  R.R.R.8 8 8 8 8 8 8 8 8 R.R.R.R.R.R.R.R.R.R.R.",
"R.R.R.R.R.R.R.R.R.R.R.R.R.R.R.H.R.R.R.R.R.R.R.R.R.R.R.R.R.R.R.R.R.] } } f a u =   R.R.R.R.R.R.R.R.R.8 8 8 R.R.R.R.R.R.R.R.R.R.R.",
"R.R.R.R.R.R.R.R.R.R.R.R.R.R.R.R.R.R.R.R.R.R.R.R.R.R.R.R.R.R.R.R.R.[ :.} f j a t R.R.R.R.R.R.R.R.R.R.R.R.R.R.R.R.R.R.R.R.R.R.R.R.",
"R.R.R.R.R.R.R.R.R.R.R.R.R.R.R.R.R.R.R.R.R.R.R.R.4.R.R.R.R.R.R.R.R.} ;.[ f j a * R.R.R.R.R.R.R.R.H.R.R.R.R.R.R.R.R.R.4.R.R.R.R.R.",
"R.R.R.R.R.R.R.R.R.R.R.R.R.R.R.R.R.R.R.R.R.R.R.4.4.R.R.R.R.R.R.R.R.;.} l j j a * R.R.R.R.R.R.R.R.H.H.R.R.R.R.R.R.R.R.4.4.R.R.R.R.",
"R.R.R.R.R.R.R.R.R.R.R.R.R.R.R.R.R.R.R.R.R.R.R.R.R.R.R.R.R.R.R.R.j :.} k f j d * R.R.R.R.R.R.R.R.R.R.R.R.R.R.R.R.R.R.R.R.R.R.R.R.",
"R.R.R.R.R.R.R.R.R.R.R.R.R.R.R.R.R.R.R.R.R.R.R.R.R.R.R.R.R.R.R.R.k >.} l h j d = R.R.R.R.R.R.R.R.R.R.R.R.R.R.R.R.R.R.R.R.R.R.R.R.",
"R.R.R.R.R.R.R.R.R.R.R.R.R.R.R.R.R.R.R.R.R.R.R.R.R.R.R.R.R.R.R.R.] >.[ ] f j d = R.R.R.R.R.R.R.R.R.R.R.R.R.R.R.R.R.R.R.R.R.R.R.R.",
"R.R.R.R.R.R.R.R.R.R.R.R.R.R.R.R.R.R.R.R.R.R.R.R.R.R.R.R.R.R.R.R.[ :.[ [ f g d t   R.R.R.R.R.R.R.R.R.R.R.R.R.R.R.R.R.R.R.R.R.R.R.",
"R.R.R.R.R.R.R.R.R.R.R.R.R.R.R.R.R.R.R.R.R.R.R.R.R.=.=.R.R.*.-.4 l [ l k s p j u   1 =.=.R.R.R.R.R.R.R.R.R.R.R.R.R.R.R.R.R.R.R.R.",
"R.R.R.R.R.R.R.R.R.R.R.R.R.R.R.R.R.R.R.R.R.R.R.R.R.=.=.@.1 2 , 3 g j h a u s g t   % @ @ @ *.=.R.R.R.R.R.R.R.R.R.R.R.R.R.R.R.R.R.",
"R.R.R.R.R.R.R.R.R.R.R.R.R.R.R.R.R.R.R.R.R.R.R.R.=.$.# )  .` > : t y u ; ; ; * &   $ < ' ` O O.=.R.R.R.R.R.R.R.R.R.R.R.R.R.R.R.R.",
"R.R.R.R.R.R.R.R.R.R.R.R.R.R.R.R.R.R.R.R.R.R.R.R.=.O.O 5 6 O o X > O X X X X X X X O ) ` 5 + @ =.R.R.R.R.R.R.R.R.R.R.R.R.R.R.R.R.",
"R.R.R.R.R.R.R.R.R.R.R.R.R.R.R.R.R.R.R.R.R.R.R.R.R.=.*.%.O.O.O.$.%.%.@.o.+ o.O.$.$.$.&.$.*.=.=.R.R.R.R.R.R.R.R.R.R.R.R.R.R.R.R.R.",
"R.R.R.R.R.R.R.R.R.R.R.R.R.R.R.R.R.R.R.R.R.R.R.R.R.R.R.=.=.-.=.-.%.-.-.=.%.-.-.-.-.R.R.R.R.R.R.R.R.R.R.R.R.R.R.R.R.R.R.R.R.R.R.R.",
"R.R.R.R.R.R.R.R.R.R.R.R.R.R.R.R.R.R.R.R.R.R.R.R.R.R.R.R.R.R.R.R.R.R.R.R.R.R.R.R.R.R.R.R.R.R.R.R.R.R.R.R.R.R.R.R.R.R.R.R.R.R.R.R.",
"R.R.R.R.R.R.R.R.R.R.R.R.R.R.R.R.R.R.R.R.R.R.R.R.R.R.R.R.R.R.R.R.R.R.R.R.R.n n n R.R.R.R.R.R.R.R.R.R.R.R.R.R.R.R.R.R.R.R.R.R.R.R.",
"R.R.R.R.R.R.R.R.R.R.R.R.R.R.R.R.R.R.R.R.R.R.R.R.R.R.R.R.R.R.R.R.R.R.R.R.R.R.R.R.R.R.R.R.R.R.R.R.R.R.R.R.R.R.R.R.R.R.R.R.R.R.R.R.",
"R.R.R.R.R.R.R.R.R.R.R.R.R.R.R.R.R.R.R.R.R.R.R.R.R.R.R.R.R.R.R.R.R.R.R.R.R.R.R.R.R.R.R.R.R.R.R.R.R.R.R.R.R.R.R.R.R.R.R.R.R.R.R.R."
};
